<svg width="1398" height="256" viewBox="0 0 1398 256" fill="none" xmlns="http://www.w3.org/2000/svg">
<path opacity="0.4" d="M-104.5 360.725C-104.5 179.023 255.239 31.7247 699 31.7248C1142.76 31.7248 1502.5 179.023 1502.5 360.725" stroke="#2480FC" style="stroke:#2480FC;stroke:color(display-p3 0.1412 0.5020 0.9882);stroke-opacity:1;"/>
<path opacity="0.4" d="M-104.5 304.725C-104.5 150.637 255.239 25.7247 699 25.7248C1142.76 25.7248 1502.5 150.637 1502.5 304.725" stroke="#2480FC" style="stroke:#2480FC;stroke:color(display-p3 0.1412 0.5020 0.9882);stroke-opacity:1;"/>
<path opacity="0.4" d="M-104.5 249.725C-104.5 123.252 255.239 20.7247 699 20.7248C1142.76 20.7248 1502.5 123.252 1502.5 249.725" stroke="#2480FC" style="stroke:#2480FC;stroke:color(display-p3 0.1412 0.5020 0.9882);stroke-opacity:1;"/>
<path opacity="0.4" d="M-104.5 194.725C-104.5 95.8657 255.239 15.7247 699 15.7248C1142.76 15.7248 1502.5 95.8659 1502.5 194.725" stroke="#2480FC" style="stroke:#2480FC;stroke:color(display-p3 0.1412 0.5020 0.9882);stroke-opacity:1;"/>
<path opacity="0.4" d="M-104.5 139.725C-104.5 68.48 255.239 10.7247 699 10.7248C1142.76 10.7248 1502.5 68.4801 1502.5 139.725" stroke="#2480FC" style="stroke:#2480FC;stroke:color(display-p3 0.1412 0.5020 0.9882);stroke-opacity:1;"/>
<path opacity="0.4" d="M-104.5 84.7247C-104.5 41.0942 255.239 5.72474 699 5.72478C1142.76 5.72482 1502.5 41.0944 1502.5 84.7249" stroke="#2480FC" style="stroke:#2480FC;stroke:color(display-p3 0.1412 0.5020 0.9882);stroke-opacity:1;"/>
<path opacity="0.4" d="M-104.5 29.7247C-104.5 13.7085 255.239 0.724744 699 0.724783C1142.76 0.724822 1502.5 13.7086 1502.5 29.7249" stroke="#2480FC" style="stroke:#2480FC;stroke:color(display-p3 0.1412 0.5020 0.9882);stroke-opacity:1;"/>
</svg>
