<svg width="115" height="25" viewBox="0 0 115 25" fill="none" xmlns="http://www.w3.org/2000/svg">
<rect x="0.5" y="0.603516" width="114" height="23" rx="3.5" fill="white" style="fill:white;fill-opacity:1;"/>
<rect x="0.5" y="0.603516" width="114" height="23" rx="3.5" stroke="#E5ECF1" style="stroke:#E5ECF1;stroke:color(display-p3 0.8980 0.9255 0.9451);stroke-opacity:1;"/>
<path d="M9.19241 17.1035V7.94752H12.7324C13.7884 7.94752 14.5604 8.18352 15.0484 8.65551C15.4404 9.03952 15.6364 9.56752 15.6364 10.2395C15.6364 10.7835 15.5044 11.2435 15.2404 11.6195C14.9844 11.9955 14.6284 12.2235 14.1724 12.3035C14.7884 12.3675 15.2604 12.5915 15.5884 12.9755C15.9244 13.3595 16.0924 13.8635 16.0924 14.4875C16.0924 14.8875 16.0244 15.2435 15.8884 15.5555C15.7604 15.8675 15.5804 16.1275 15.3484 16.3355C15.0284 16.6235 14.6404 16.8235 14.1844 16.9355C13.7364 17.0475 13.3004 17.1035 12.8764 17.1035H9.19241ZM12.6724 11.8355C13.1604 11.8355 13.5364 11.7235 13.8004 11.4995C14.0724 11.2675 14.2084 10.9395 14.2084 10.5155C14.2084 10.1315 14.0924 9.83152 13.8604 9.61552C13.5724 9.35152 13.0924 9.21952 12.4204 9.21952H10.6084V11.8355H12.6724ZM12.7084 15.8315C13.0284 15.8315 13.3204 15.8075 13.5844 15.7595C13.8564 15.7035 14.0884 15.5875 14.2804 15.4115C14.5444 15.1715 14.6764 14.8275 14.6764 14.3795C14.6764 13.8115 14.5044 13.4435 14.1604 13.2755C13.8164 13.1075 13.4044 13.0235 12.9244 13.0235H10.6084V15.8315H12.7084ZM22.2868 17.1035H20.8108V13.5635L17.4148 7.94752H19.0708L21.5308 12.1715L24.0148 7.94752H25.6468L22.2868 13.5635V17.1035ZM36.2061 17.2475C35.2541 17.2475 34.4541 17.0355 33.8061 16.6115C33.1581 16.1795 32.6741 15.6075 32.3541 14.8955C32.0421 14.1755 31.8861 13.3835 31.8861 12.5195C31.8861 11.6555 32.0421 10.8675 32.3541 10.1555C32.6741 9.43552 33.1581 8.86352 33.8061 8.43951C34.4541 8.01552 35.2541 7.80352 36.2061 7.80352C37.2621 7.80352 38.1221 8.06352 38.7861 8.58352C39.4501 9.09552 39.8501 9.78352 39.9861 10.6475H38.4381C38.3421 10.1515 38.0941 9.76752 37.6941 9.49552C37.2941 9.21552 36.7901 9.07552 36.1821 9.07552C35.2701 9.07552 34.5661 9.39152 34.0701 10.0235C33.5821 10.6475 33.3381 11.4795 33.3381 12.5195C33.3381 13.5675 33.5821 14.4075 34.0701 15.0395C34.5661 15.6715 35.2701 15.9875 36.1821 15.9875C36.7981 15.9875 37.3021 15.8395 37.6941 15.5435C38.0941 15.2395 38.3421 14.8035 38.4381 14.2355H39.9861C39.8421 15.1715 39.4421 15.9075 38.7861 16.4435C38.1301 16.9795 37.2701 17.2475 36.2061 17.2475ZM43.1421 17.1035H41.6661L44.9661 7.94752H46.5381L49.8381 17.1035H48.3741L47.6661 15.0395H43.8501L43.1421 17.1035ZM45.7581 9.44752L44.2821 13.7915H47.2341L45.7581 9.44752ZM54.5938 17.1035H53.1777V9.21952H50.2378V7.94752H57.5458V9.21952H54.5938V17.1035ZM65.7875 17.1035H59.7635V7.94752H65.7875V9.21952H61.1795V11.8835H65.2715V13.1435H61.1795V15.8315H65.7875V17.1035ZM72.3437 17.2475C71.3677 17.2475 70.5477 17.0315 69.8837 16.5995C69.2277 16.1675 68.7397 15.5955 68.4197 14.8835C68.0997 14.1635 67.9397 13.3795 67.9397 12.5315C67.9397 11.6755 68.0997 10.8915 68.4197 10.1795C68.7397 9.45952 69.2277 8.88352 69.8837 8.45152C70.5477 8.01952 71.3637 7.80352 72.3317 7.80352C73.4037 7.80352 74.2797 8.05952 74.9597 8.57152C75.6477 9.07552 76.1077 9.76352 76.3397 10.6355H74.7677C74.5917 10.1395 74.2917 9.75552 73.8677 9.48352C73.4517 9.21152 72.9357 9.07552 72.3197 9.07552C71.6797 9.07552 71.1397 9.23152 70.6997 9.54351C70.2597 9.84752 69.9317 10.2595 69.7157 10.7795C69.4997 11.2915 69.3917 11.8675 69.3917 12.5075C69.3917 13.1635 69.5037 13.7555 69.7277 14.2835C69.9597 14.8035 70.2997 15.2195 70.7477 15.5315C71.2037 15.8355 71.7557 15.9875 72.4037 15.9875C73.2197 15.9875 73.8637 15.7635 74.3357 15.3155C74.8157 14.8595 75.0597 14.2275 75.0677 13.4195H72.9557V12.2195H76.4597V17.1035H75.1757V15.9275C74.8717 16.3755 74.4637 16.7075 73.9517 16.9235C73.4477 17.1395 72.9117 17.2475 72.3437 17.2475ZM83.2574 17.2475C82.3054 17.2475 81.5014 17.0355 80.8454 16.6115C80.1974 16.1795 79.7134 15.6075 79.3934 14.8955C79.0734 14.1755 78.9134 13.3835 78.9134 12.5195C78.9134 11.6475 79.0734 10.8555 79.3934 10.1435C79.7134 9.43152 80.1974 8.86352 80.8454 8.43951C81.5014 8.01552 82.3054 7.80352 83.2574 7.80352C84.2094 7.80352 85.0094 8.01552 85.6574 8.43951C86.3134 8.86352 86.8014 9.43152 87.1214 10.1435C87.4494 10.8555 87.6134 11.6475 87.6134 12.5195C87.6134 13.3835 87.4494 14.1755 87.1214 14.8955C86.8014 15.6075 86.3134 16.1795 85.6574 16.6115C85.0094 17.0355 84.2094 17.2475 83.2574 17.2475ZM83.2574 15.9755C83.8654 15.9755 84.3854 15.8315 84.8174 15.5435C85.2574 15.2475 85.5894 14.8395 85.8134 14.3195C86.0454 13.7995 86.1614 13.1995 86.1614 12.5195C86.1614 11.8395 86.0454 11.2435 85.8134 10.7315C85.5894 10.2115 85.2574 9.80752 84.8174 9.51952C84.3854 9.22352 83.8654 9.07552 83.2574 9.07552C82.6494 9.07552 82.1254 9.22352 81.6854 9.51952C81.2534 9.80752 80.9254 10.2115 80.7014 10.7315C80.4774 11.2435 80.3654 11.8395 80.3654 12.5195C80.3654 13.1995 80.4774 13.7995 80.7014 14.3195C80.9254 14.8395 81.2534 15.2475 81.6854 15.5435C82.1254 15.8315 82.6494 15.9755 83.2574 15.9755ZM96.9906 17.1035H95.4546L93.9186 13.3355H91.6506V17.1035H90.2346V7.94752H93.9186C94.8146 7.94752 95.5226 8.17152 96.0426 8.61952C96.5626 9.05952 96.8226 9.72352 96.8226 10.6115C96.8226 11.2115 96.6866 11.7235 96.4146 12.1475C96.1426 12.5715 95.7666 12.8835 95.2866 13.0835L96.9906 17.1035ZM91.6506 12.0995H93.7266C94.2706 12.0995 94.6866 11.9755 94.9746 11.7275C95.2706 11.4795 95.4186 11.1195 95.4186 10.6475C95.4186 10.1915 95.2706 9.83952 94.9746 9.59152C94.6866 9.34352 94.2706 9.21952 93.7266 9.21952H91.6506V12.0995ZM103.317 17.1035H101.841V13.5635L98.4453 7.94752H100.101L102.561 12.1715L105.045 7.94752H106.677L103.317 13.5635V17.1035Z" fill="#2480FC" style="fill:#2480FC;fill:color(display-p3 0.1412 0.5020 0.9882);fill-opacity:1;"/>
</svg>
