<svg width="32" height="32" viewBox="0 0 32 32" fill="none" xmlns="http://www.w3.org/2000/svg">
<path d="M13.9016 17.0521C12.8169 17.027 10.2859 16.9957 6.87681 17.1272C4.06819 17.2337 1.85357 17.4028 0.555797 17.5218C0.039268 17.5656 -0.186713 18.1732 0.181313 18.5302L12.9589 30.9251C13.327 31.2884 13.9597 31.0629 13.9985 30.5556C14.1082 29.1714 14.2696 26.8477 14.3665 24.4489C14.4827 21.5741 14.4892 18.7995 14.4892 17.6345C14.4892 17.3151 14.2309 17.0583 13.9016 17.0458V17.0521ZM31.4442 17.5155C30.1464 17.3965 27.9318 17.2274 25.1232 17.121C21.7141 16.9894 19.1896 17.0207 18.0984 17.0458C17.7691 17.0521 17.5108 17.3089 17.5044 17.6345C17.5044 18.7995 17.5108 21.5678 17.6271 24.4489C17.7239 26.8477 17.8918 29.1714 17.9951 30.5556C18.0338 31.0566 18.6666 31.2884 19.0346 30.9251L31.8122 18.5302C32.1803 18.1732 31.9543 17.5656 31.4377 17.5218L31.4442 17.5155ZM14.0049 0.648685C13.9662 0.141364 13.3334 -0.0778487 12.9654 0.279155L0.181313 12.6741C-0.186713 13.0311 0.0457246 13.6386 0.555797 13.6824C1.85357 13.8014 4.06819 13.9706 6.87681 14.0708C10.2859 14.2023 12.8104 14.171 13.9016 14.1459C14.2309 14.1397 14.4892 13.8829 14.4892 13.5572C14.4892 12.3985 14.4892 9.62388 14.3665 6.7428C14.2696 4.34398 14.1082 2.02033 13.9985 0.636158L14.0049 0.648685ZM18.0984 14.1522C19.1831 14.1772 21.7141 14.2086 25.1232 14.077C27.9383 13.9706 30.1464 13.8014 31.4442 13.6887C31.9607 13.6449 32.1867 13.0373 31.8187 12.6803L19.0411 0.279155C18.673 -0.0778487 18.0403 0.141364 18.0015 0.648685C17.8918 2.02659 17.7304 4.35651 17.6335 6.75532C17.5173 9.63014 17.5108 12.4047 17.5108 13.5697C17.5108 13.8891 17.7691 14.1522 18.1049 14.1585L18.0984 14.1522Z" fill="#27344A" style="fill:#27344A;fill:color(display-p3 0.1529 0.2039 0.2902);fill-opacity:1;"/>
</svg>
