<svg width="227" height="24" viewBox="0 0 227 24" fill="none" xmlns="http://www.w3.org/2000/svg">
<rect x="0.5" y="0.5" width="226" height="23" rx="3.5" fill="#2480FC" style="fill:#2480FC;fill:color(display-p3 0.1412 0.5020 0.9882);fill-opacity:1;"/>
<rect x="0.5" y="0.5" width="226" height="23" rx="3.5" stroke="#2480FC" style="stroke:#2480FC;stroke:color(display-p3 0.1412 0.5020 0.9882);stroke-opacity:1;"/>
<path d="M10.3022 17H8.88615V7.844H14.9102V9.116H10.3022V11.78H14.3942V13.04H10.3022V17ZM23.3406 17H17.3166V7.844H23.3406V9.116H18.7326V11.78H22.8246V13.04H18.7326V15.728H23.3406V17ZM26.6546 17H25.1786L28.4786 7.844H30.0506L33.3506 17H31.8866L31.1786 14.936H27.3626L26.6546 17ZM29.2706 9.344L27.7946 13.688H30.7466L29.2706 9.344ZM38.1062 17H36.6902V9.116H33.7502V7.844H41.0582V9.116H38.1062V17ZM46.744 17.144C45.544 17.144 44.652 16.848 44.068 16.256C43.484 15.656 43.192 14.824 43.192 13.76V7.844H44.608V13.76C44.608 15.176 45.32 15.884 46.744 15.884C47.48 15.884 48.016 15.7 48.352 15.332C48.696 14.956 48.868 14.432 48.868 13.76V7.844H50.284V13.76C50.284 14.816 49.992 15.644 49.408 16.244C48.824 16.844 47.936 17.144 46.744 17.144ZM59.9156 17H58.3796L56.8436 13.232H54.5756V17H53.1596V7.844H56.8436C57.7396 7.844 58.4476 8.068 58.9676 8.516C59.4876 8.956 59.7476 9.62 59.7476 10.508C59.7476 11.108 59.6116 11.62 59.3396 12.044C59.0676 12.468 58.6916 12.78 58.2116 12.98L59.9156 17ZM54.5756 11.996H56.6516C57.1956 11.996 57.6116 11.872 57.8996 11.624C58.1956 11.376 58.3436 11.016 58.3436 10.544C58.3436 10.088 58.1956 9.736 57.8996 9.488C57.6116 9.24 57.1956 9.116 56.6516 9.116H54.5756V11.996ZM68.4695 17H62.4455V7.844H68.4695V9.116H63.8615V11.78H67.9535V13.04H63.8615V15.728H68.4695V17ZM71.0635 17V7.844H73.6675C75.1955 7.844 76.3675 8.244 77.1835 9.044C77.9995 9.836 78.4075 10.968 78.4075 12.44C78.4075 13.904 77.9955 15.032 77.1715 15.824C76.3555 16.608 75.1835 17 73.6555 17H71.0635ZM73.6435 15.728C74.6835 15.728 75.4995 15.484 76.0915 14.996C76.6915 14.5 76.9915 13.648 76.9915 12.44C76.9915 11.288 76.6955 10.448 76.1035 9.92C75.5115 9.384 74.6915 9.116 73.6435 9.116H72.4795V15.728H73.6435ZM86.2421 17H84.7661L88.0661 7.844H89.6381L92.9381 17H91.4741L90.7661 14.936H86.9501L86.2421 17ZM88.8581 9.344L87.3821 13.688H90.3341L88.8581 9.344ZM95.1479 17V7.844H98.8319C99.7279 7.844 100.436 8.068 100.956 8.516C101.476 8.956 101.736 9.62 101.736 10.508C101.736 11.356 101.472 12.024 100.944 12.512C100.416 12.992 99.7119 13.232 98.8319 13.232H96.5639V17H95.1479ZM98.6399 11.996C99.1839 11.996 99.5999 11.872 99.8879 11.624C100.184 11.376 100.332 11.016 100.332 10.544C100.332 10.088 100.184 9.736 99.8879 9.488C99.5999 9.24 99.1839 9.116 98.6399 9.116H96.5639V11.996H98.6399ZM105.604 17H104.188V7.844H105.604V17ZM117.076 17.144C116.124 17.144 115.32 16.932 114.664 16.508C114.016 16.076 113.532 15.504 113.212 14.792C112.892 14.072 112.732 13.28 112.732 12.416C112.732 11.544 112.892 10.752 113.212 10.04C113.532 9.328 114.016 8.76 114.664 8.336C115.32 7.912 116.124 7.7 117.076 7.7C118.028 7.7 118.828 7.912 119.476 8.336C120.132 8.76 120.62 9.328 120.94 10.04C121.268 10.752 121.432 11.544 121.432 12.416C121.432 13.28 121.268 14.072 120.94 14.792C120.62 15.504 120.132 16.076 119.476 16.508C118.828 16.932 118.028 17.144 117.076 17.144ZM117.076 15.872C117.684 15.872 118.204 15.728 118.636 15.44C119.076 15.144 119.408 14.736 119.632 14.216C119.864 13.696 119.98 13.096 119.98 12.416C119.98 11.736 119.864 11.14 119.632 10.628C119.408 10.108 119.076 9.704 118.636 9.416C118.204 9.12 117.684 8.972 117.076 8.972C116.468 8.972 115.944 9.12 115.504 9.416C115.072 9.704 114.744 10.108 114.52 10.628C114.296 11.14 114.184 11.736 114.184 12.416C114.184 13.096 114.296 13.696 114.52 14.216C114.744 14.736 115.072 15.144 115.504 15.44C115.944 15.728 116.468 15.872 117.076 15.872ZM125.469 17H124.053V7.844H130.077V9.116H125.469V11.78H129.561V13.04H125.469V17ZM140.601 17H139.185V9.116H136.245V7.844H143.553V9.116H140.601V17ZM147.187 17H145.771V7.844H147.187V11.768H151.447V7.844H152.863V17H151.447V13.04H147.187V17ZM161.866 17H155.842V7.844H161.866V9.116H157.258V11.78H161.35V13.04H157.258V15.728H161.866V17ZM170.369 17H168.953V7.844H171.377L173.549 15.272L175.733 7.844H178.157V17H176.741V8.816L174.257 17H172.865L170.369 8.876V17ZM185.129 17.144C184.177 17.144 183.373 16.932 182.717 16.508C182.069 16.076 181.585 15.504 181.265 14.792C180.945 14.072 180.785 13.28 180.785 12.416C180.785 11.544 180.945 10.752 181.265 10.04C181.585 9.328 182.069 8.76 182.717 8.336C183.373 7.912 184.177 7.7 185.129 7.7C186.081 7.7 186.881 7.912 187.529 8.336C188.185 8.76 188.673 9.328 188.993 10.04C189.321 10.752 189.485 11.544 189.485 12.416C189.485 13.28 189.321 14.072 188.993 14.792C188.673 15.504 188.185 16.076 187.529 16.508C186.881 16.932 186.081 17.144 185.129 17.144ZM185.129 15.872C185.737 15.872 186.257 15.728 186.689 15.44C187.129 15.144 187.461 14.736 187.685 14.216C187.917 13.696 188.033 13.096 188.033 12.416C188.033 11.736 187.917 11.14 187.685 10.628C187.461 10.108 187.129 9.704 186.689 9.416C186.257 9.12 185.737 8.972 185.129 8.972C184.521 8.972 183.997 9.12 183.557 9.416C183.125 9.704 182.797 10.108 182.573 10.628C182.349 11.14 182.237 11.736 182.237 12.416C182.237 13.096 182.349 13.696 182.573 14.216C182.797 14.736 183.125 15.144 183.557 15.44C183.997 15.728 184.521 15.872 185.129 15.872ZM193.522 17H192.106V7.844H193.894L197.83 15.152V7.844H199.234V17H197.458L193.522 9.704V17ZM205.825 17H204.409V9.116H201.469V7.844H208.777V9.116H205.825V17ZM212.411 17H210.995V7.844H212.411V11.768H216.671V7.844H218.087V17H216.671V13.04H212.411V17Z" fill="#EEF1F4" style="fill:#EEF1F4;fill:color(display-p3 0.9333 0.9451 0.9569);fill-opacity:1;"/>
</svg>
