<svg width="126" height="25" viewBox="0 0 126 25" fill="none" xmlns="http://www.w3.org/2000/svg">
<path d="M46.2218 12.3909C46.3195 12.3909 46.3879 12.2932 46.3586 12.2004C45.4303 9.21028 44.9026 7.51491 44.7854 7.11427C44.6632 6.70875 44.5753 6.38628 44.5264 6.14688C44.3115 6.97258 43.7105 8.99042 42.7187 12.2004C42.6894 12.2932 42.7578 12.3909 42.8555 12.3909H46.2218ZM48.1615 18.2881L47.1794 15.0586C47.1599 15 47.1061 14.956 47.0426 14.956H41.9956C41.9321 14.956 41.8783 14.9951 41.8588 15.0586L40.8767 18.2881C40.8572 18.3467 40.8035 18.3907 40.7399 18.3907H37.7547C37.657 18.3907 37.5837 18.293 37.6179 18.1953L42.6063 4.00201C42.6259 3.94338 42.6796 3.9043 42.7431 3.9043H46.2804C46.344 3.9043 46.3977 3.94338 46.4172 4.00201L51.4252 18.1953C51.4594 18.2881 51.391 18.3907 51.2884 18.3907H48.3032C48.2396 18.3907 48.1859 18.3516 48.1664 18.2881" fill="#0052CC" style="fill:#0052CC;fill:color(display-p3 0.0000 0.3216 0.8000);fill-opacity:1;"/>
<path d="M56.3652 10.6086C56.3652 10.6867 56.4287 10.7551 56.5117 10.7551H57.3716C58.3146 10.7551 59.0181 10.5695 59.4823 10.1981C59.9513 9.82683 60.181 9.2845 60.181 8.57606C60.181 7.86762 59.9855 7.33018 59.5947 6.98818C59.2038 6.64617 58.5882 6.47517 57.7527 6.47517H56.5068C56.4287 6.47517 56.3603 6.53868 56.3603 6.62174V10.6134L56.3652 10.6086ZM63.2688 8.46858C63.2688 10.0223 62.7851 11.2095 61.8128 12.0303C60.8406 12.8511 59.4628 13.2615 57.6746 13.2615H56.5068C56.4287 13.2615 56.3603 13.3251 56.3603 13.4081V18.25C56.3603 18.3281 56.2968 18.3965 56.2137 18.3965H53.4434C53.3653 18.3965 53.2969 18.333 53.2969 18.25V4.11044C53.2969 4.03227 53.3604 3.96875 53.4434 3.96875H57.9042C59.6533 3.96875 60.9822 4.34496 61.8959 5.09737C62.8046 5.84978 63.2639 6.97352 63.2639 8.46858" fill="#0052CC" style="fill:#0052CC;fill:color(display-p3 0.0000 0.3216 0.8000);fill-opacity:1;"/>
<path d="M65.9922 18.2451V4.11044C65.9922 4.03227 66.0557 3.96875 66.1388 3.96875H68.909C68.9872 3.96875 69.0556 4.03227 69.0556 4.11044V18.2451C69.0556 18.3232 68.9921 18.3916 68.909 18.3916H66.1388C66.0606 18.3916 65.9922 18.3281 65.9922 18.2451Z" fill="#0052CC" style="fill:#0052CC;fill:color(display-p3 0.0000 0.3216 0.8000);fill-opacity:1;"/>
<path d="M72.6797 18.2451V4.11044C72.6797 4.03227 72.7432 3.96875 72.8263 3.96875H75.5965C75.6747 3.96875 75.7431 4.03227 75.7431 4.11044V15.7191C75.7431 15.7973 75.8066 15.8657 75.8897 15.8657H81.4497C81.5279 15.8657 81.5963 15.9292 81.5963 16.0123V18.25C81.5963 18.3281 81.5328 18.3965 81.4497 18.3965H72.8312C72.753 18.3965 72.6846 18.333 72.6846 18.25" fill="white" style="fill:white;fill-opacity:1;"/>
<path d="M90.0792 15.2748V13.2521C90.0792 13.1202 89.9473 12.9883 89.8154 13.0176C89.4831 13.0518 89.1167 13.1153 88.7209 13.1495C88.2226 13.2179 87.861 13.3156 87.6265 13.3791C87.3285 13.4768 87.094 13.6772 86.9279 13.8775C86.7617 14.112 86.6933 14.3758 86.6933 14.7423C86.6933 14.9768 86.7275 15.1722 86.7617 15.3041C86.7959 15.436 86.8936 15.6022 87.0256 15.7341C87.1575 15.866 87.3236 15.9686 87.4897 16.0321C87.6558 16.1005 87.9539 16.1298 88.3496 16.1298C88.6477 16.1298 88.9799 16.0614 89.2779 15.9002C89.576 15.7683 89.8105 15.6022 90.0401 15.3676C90.0743 15.4018 90.0743 15.3334 90.0743 15.2699M90.0792 17.6933C90.0792 17.493 89.8447 17.3953 89.6834 17.5272C89.615 17.5956 89.5515 17.6591 89.4489 17.7275C89.2193 17.9278 88.9848 18.0939 88.7503 18.2258C88.4522 18.392 88.12 18.5239 87.822 18.5923C87.4897 18.6607 87.1233 18.7242 86.7617 18.7242C85.8334 18.7242 85.0712 18.392 84.4752 17.7275C83.8449 17.063 83.5469 16.2031 83.5469 15.1429C83.5469 14.3123 83.713 13.6185 84.011 13.086C84.3091 12.5534 84.7732 12.1235 85.34 11.8254C85.9018 11.5274 86.6347 11.2929 87.4653 11.161C88.2959 11.0291 89.19 10.9264 90.0841 10.8629V10.7945C90.0841 10.1643 89.8496 9.73431 89.4196 9.49979C88.9897 9.27016 88.3594 9.13336 87.4946 9.13336C86.9963 9.13336 86.4344 9.23107 85.8676 9.46559C85.3058 9.66591 84.8709 9.83203 84.6413 9.96395H84.3433V7.37935C84.3433 7.28164 84.4117 7.17904 84.5094 7.14484C84.8416 7.04712 85.3058 6.94452 85.936 6.8468C86.664 6.71489 87.3969 6.64648 88.1249 6.64648C89.8838 6.64648 91.1443 6.97872 91.9065 7.60899C92.6687 8.23926 93.0693 9.26528 93.0693 10.6284V18.1574C93.0693 18.2894 92.9716 18.392 92.8348 18.392H90.2453C90.1134 18.392 90.0108 18.2942 90.0108 18.1574V17.6933H90.0792Z" fill="white" style="fill:white;fill-opacity:1;"/>
<path d="M100.523 13.6115L102.448 7.14268C102.483 7.04496 102.58 6.97656 102.678 6.97656H105.331C105.497 6.97656 105.595 7.14268 105.561 7.2746L100.387 22.401C100.352 22.4988 100.255 22.5672 100.152 22.5672H97.2988C97.1327 22.5672 97.035 22.401 97.0692 22.2691L98.4616 18.3898C98.4958 18.3556 98.4958 18.2921 98.4616 18.2237L94.8461 7.27948C94.7777 7.11336 94.9145 6.98145 95.0807 6.98145H97.8314C97.9291 6.98145 98.0317 7.04985 98.0659 7.14757L100.089 13.6164C100.157 13.8167 100.455 13.8167 100.519 13.6164" fill="white" style="fill:white;fill-opacity:1;"/>
<path d="M113.536 11.1942C113.668 11.1942 113.771 11.0965 113.771 10.9597C113.737 10.3294 113.571 9.83108 113.307 9.46954C113.009 9.07379 112.545 8.90767 111.88 8.90767C111.284 8.90767 110.786 9.10799 110.419 9.46954C110.087 9.80177 109.857 10.3001 109.789 10.9597C109.789 11.0916 109.887 11.2235 110.024 11.2235L113.541 11.1893L113.536 11.1942ZM116.619 13.3489H110.053C109.921 13.3489 109.789 13.4808 109.818 13.6127C109.916 14.3749 110.185 14.971 110.649 15.4058C111.181 15.8699 111.944 16.1045 112.97 16.1045C113.634 16.1045 114.264 15.9725 114.86 15.6745C115.457 15.4107 115.955 15.1126 116.321 14.7804H116.654V17.5653C116.654 17.663 116.585 17.7314 116.522 17.7998C115.891 18.0979 115.261 18.3324 114.699 18.4643C114.069 18.5962 113.405 18.6988 112.642 18.6988C110.717 18.6988 109.227 18.1663 108.196 17.1402C107.17 16.1093 106.672 14.6534 106.672 12.7284C106.672 10.8034 107.17 9.34739 108.133 8.25297C109.095 7.15855 110.453 6.5918 112.144 6.5918C113.703 6.5918 114.895 7.05595 115.662 7.98425C116.458 8.91255 116.854 10.2757 116.854 12.0297V13.0899C116.854 13.256 116.756 13.3537 116.619 13.3537" fill="white" style="fill:white;fill-opacity:1;"/>
<path d="M125.998 10.4601H125.735C125.603 10.3917 125.402 10.3624 125.104 10.3282C124.806 10.294 124.572 10.294 124.376 10.294C123.946 10.294 123.546 10.3282 123.213 10.3917C122.915 10.4601 122.617 10.5579 122.285 10.6898C122.187 10.724 122.119 10.8217 122.119 10.9194V18.1846C122.119 18.3165 122.021 18.4142 121.885 18.4142H119.266C119.134 18.4142 119.031 18.3165 119.031 18.1846V7.24528C119.031 7.11336 119.129 7.01076 119.266 7.01076H121.885C122.016 7.01076 122.119 7.10848 122.119 7.24528V8.13938C122.119 8.3397 122.354 8.43742 122.515 8.3055C123.013 7.84135 123.477 7.50911 123.873 7.3088C124.371 7.07428 124.836 6.97656 125.266 6.97656H125.632C125.764 6.97656 125.896 7.01076 125.998 7.01076V10.4601Z" fill="white" style="fill:white;fill-opacity:1;"/>
<path d="M25.8029 16.5012L24.474 18.2259C23.9121 18.9538 23.0473 19.3887 22.1532 19.3887H8.61955L3.6116 7.48197C3.24517 6.61718 3.37708 5.62537 3.94384 4.8925L5.03826 3.43164L10.5104 16.5012H25.8029Z" fill="#0052CC" style="fill:#0052CC;fill:color(display-p3 0.0000 0.3216 0.8000);fill-opacity:1;"/>
<path d="M25.9708 14.546H11.9388L6.96501 2.66862C6.43245 1.40808 7.36076 0.015625 8.7239 0.015625H22.7559L27.7297 11.8881C28.2622 13.1487 27.3339 14.5411 25.9708 14.5411" fill="#0052CC" style="fill:#0052CC;fill:color(display-p3 0.0000 0.3216 0.8000);fill-opacity:1;"/>
<path d="M22.0833 21.308L20.7543 23.0327C20.1925 23.7607 19.3277 24.1955 18.4336 24.1955H6.66367C5.80377 24.1955 5.0367 23.6971 4.70446 22.9008L0.22418 12.1569C-0.17157 11.1944 -0.0396534 10.0658 0.590615 9.24005L1.58732 7.94531L7.19134 21.3129H22.0833V21.308Z" fill="#0052CC" style="fill:#0052CC;fill:color(display-p3 0.0000 0.3216 0.8000);fill-opacity:1;"/>
</svg>
