<svg width="20" height="21" viewBox="0 0 20 21" fill="none" xmlns="http://www.w3.org/2000/svg">
<path fill-rule="evenodd" clip-rule="evenodd" d="M10 0.015625C15.523 0.015625 20 4.60555 20 10.2685C20 14.7975 17.138 18.6396 13.167 19.9966C12.66 20.0976 12.48 19.7774 12.48 19.5044C12.48 19.1664 12.492 18.0624 12.492 16.6904C12.492 15.7344 12.172 15.1105 11.813 14.7925C14.04 14.5385 16.38 13.6714 16.38 9.73339C16.38 8.61339 15.992 7.69944 15.35 6.98144C15.454 6.72244 15.797 5.67957 15.252 4.26757C15.252 4.26757 14.414 3.99284 12.505 5.31884C11.706 5.09184 10.85 4.97763 10 4.97363C9.15 4.97763 8.295 5.09184 7.497 5.31884C5.586 3.99284 4.746 4.26757 4.746 4.26757C4.203 5.67957 4.546 6.72244 4.649 6.98144C4.01 7.69944 3.619 8.61339 3.619 9.73339C3.619 13.6614 5.954 14.5418 8.175 14.8008C7.889 15.0568 7.63 15.5084 7.54 16.1714C6.97 16.4334 5.522 16.8868 4.63 15.3198C4.63 15.3198 4.101 14.3347 3.097 14.2627C3.097 14.2627 2.122 14.2497 3.029 14.8857C3.029 14.8857 3.684 15.2007 4.139 16.3857C4.139 16.3857 4.726 18.2157 7.508 17.5957C7.513 18.4527 7.522 19.2604 7.522 19.5044C7.522 19.7754 7.338 20.0925 6.839 19.9975C2.865 18.6425 0 14.7985 0 10.2685C0 4.60555 4.478 0.015625 10 0.015625Z" fill="#EEF1F4" style="fill:#EEF1F4;fill:color(display-p3 0.9333 0.9451 0.9569);fill-opacity:1;"/>
</svg>
