<svg width="17" height="16" viewBox="0 0 17 16" fill="none" xmlns="http://www.w3.org/2000/svg">
<path fill-rule="evenodd" clip-rule="evenodd" d="M8.5 0C12.9184 0 16.5 3.67194 16.5 8.20234C16.5 11.8255 14.2104 14.8992 11.0336 15.9847C10.628 16.0655 10.484 15.8094 10.484 15.591C10.484 15.3206 10.4936 14.4374 10.4936 13.3398C10.4936 12.575 10.2376 12.0759 9.9504 11.8215C11.732 11.6183 13.604 10.9246 13.604 7.77421C13.604 6.87821 13.2936 6.14705 12.78 5.57265C12.8632 5.36545 13.1376 4.53116 12.7016 3.40156C12.7016 3.40156 12.0312 3.18177 10.504 4.24257C9.8648 4.06097 9.18 3.9696 8.5 3.9664C7.82 3.9696 7.136 4.06097 6.4976 4.24257C4.9688 3.18177 4.2968 3.40156 4.2968 3.40156C3.8624 4.53116 4.1368 5.36545 4.2192 5.57265C3.708 6.14705 3.3952 6.87821 3.3952 7.77421C3.3952 10.9166 5.2632 11.6209 7.04 11.8281C6.8112 12.0329 6.604 12.3942 6.532 12.9246C6.076 13.1342 4.9176 13.4969 4.204 12.2433C4.204 12.2433 3.7808 11.4552 2.9776 11.3976C2.9776 11.3976 2.1976 11.3873 2.9232 11.8961C2.9232 11.8961 3.4472 12.1481 3.8112 13.0961C3.8112 13.0961 4.2808 14.56 6.5064 14.064C6.5104 14.7496 6.5176 15.3958 6.5176 15.591C6.5176 15.8078 6.3704 16.0615 5.9712 15.9855C2.792 14.9015 0.5 11.8263 0.5 8.20234C0.5 3.67194 4.0824 0 8.5 0Z" fill="#27344A" fill-opacity="0.8" style="fill:#27344A;fill:color(display-p3 0.1529 0.2039 0.2902);fill-opacity:0.8;"/>
</svg>
