<svg width="563" height="309" viewBox="0 0 563 309" fill="none" xmlns="http://www.w3.org/2000/svg">
<g clip-path="url(#clip0_265_3295)">
<path d="M0 9.99998C0 4.47713 4.47715 0 10 0H553C558.523 0 563 4.47715 563 10V298.963C563 304.486 558.523 308.963 553 308.963H10C4.47716 308.963 0 304.486 0 298.963V9.99998Z" fill="#202937" style="fill:#202937;fill:color(display-p3 0.1264 0.1589 0.2138);fill-opacity:1;"/>
<path d="M261.891 372V151.629C261.891 140.583 270.845 131.629 281.891 131.629H497.891C508.936 131.629 517.891 122.675 517.891 111.629V-2.37085C517.891 -13.4165 508.936 -22.3708 497.891 -22.3708H352.266" stroke="#2480FC" style="stroke:#2480FC;stroke:color(display-p3 0.1412 0.5020 0.9882);stroke-opacity:1;" stroke-dasharray="2 2"/>
<path d="M100 372V151.629C100 140.583 108.954 131.629 120 131.629H282.891C293.936 131.629 302.891 122.675 302.891 111.629V-2.37085C302.891 -13.4165 293.936 -22.3708 282.891 -22.3708H137.266" stroke="#2480FC" style="stroke:#2480FC;stroke:color(display-p3 0.1412 0.5020 0.9882);stroke-opacity:1;" stroke-dasharray="2 2"/>
<circle cx="517.89" cy="65.1335" r="6.36646" fill="#27344A" stroke="#2480FC" style="fill:#27344A;fill:color(display-p3 0.1529 0.2039 0.2902);fill-opacity:1;stroke:#2480FC;stroke:color(display-p3 0.1412 0.5020 0.9882);stroke-opacity:1;"/>
<g filter="url(#filter0_b_265_3295)">
<circle cx="261.891" cy="261.548" r="11.7812" fill="#384457" fill-opacity="0.3" style="fill:#384457;fill:color(display-p3 0.2196 0.2667 0.3412);fill-opacity:0.3;"/>
<circle cx="261.891" cy="261.548" r="11.2047" stroke="#2480FC" style="stroke:#2480FC;stroke:color(display-p3 0.1412 0.5020 0.9882);stroke-opacity:1;" stroke-width="1.15313"/>
</g>
<rect x="201.461" y="94.7573" width="120.855" height="119.45" rx="16" fill="#0052CC" style="fill:#0052CC;fill:color(display-p3 0.0000 0.3216 0.8000);fill-opacity:1;"/>
<g filter="url(#filter1_b_265_3295)">
<circle cx="418.187" cy="132.186" r="28.2964" fill="#384457" fill-opacity="0.3" style="fill:#384457;fill:color(display-p3 0.2196 0.2667 0.3412);fill-opacity:0.3;"/>
</g>
<g filter="url(#filter2_b_265_3295)">
<circle cx="99.9995" cy="188.779" r="28.2964" fill="#384457" fill-opacity="0.3" style="fill:#384457;fill:color(display-p3 0.2196 0.2667 0.3412);fill-opacity:0.3;"/>
</g>
<path fill-rule="evenodd" clip-rule="evenodd" d="M91.3189 179.651C91.6602 179.681 91.9633 179.881 92.125 180.183L94.4952 184.611L96.5866 184.932L97.4798 183.014L95.1097 178.586C94.948 178.284 94.9495 177.92 95.1137 177.62C95.278 177.319 95.5828 177.121 95.9244 177.094C98.9135 176.856 101.904 178.366 103.411 181.183C104.805 183.786 104.567 186.825 103.057 189.13L108.137 198.62C109.108 200.433 108.425 202.69 106.612 203.66C104.798 204.631 102.542 203.948 101.571 202.134L96.4913 192.644C93.7359 192.622 91.0755 191.135 89.682 188.532C88.1745 185.715 88.576 182.389 90.432 180.034C90.6441 179.765 90.9775 179.621 91.3189 179.651ZM91.1927 182.746C90.5949 184.264 90.6435 186.024 91.4728 187.573C92.5858 189.652 94.7942 190.772 97.0076 190.595C97.41 190.563 97.7932 190.773 97.9837 191.128L103.362 201.176C103.803 202 104.829 202.311 105.653 201.869C106.477 201.428 106.788 200.403 106.347 199.578L100.968 189.531C100.778 189.175 100.816 188.74 101.066 188.423C102.44 186.679 102.734 184.22 101.621 182.141C100.791 180.592 99.3535 179.575 97.7589 179.231L99.5103 182.503C99.6611 182.785 99.6705 183.121 99.5355 183.411L98.1064 186.48C97.9158 186.889 97.4781 187.123 97.0319 187.055L93.6857 186.542C93.3697 186.494 93.0949 186.299 92.9441 186.017L91.1927 182.746Z" fill="#EEF1F4" style="fill:#EEF1F4;fill:color(display-p3 0.9333 0.9451 0.9569);fill-opacity:1;"/>
</g>
<defs>
<filter id="filter0_b_265_3295" x="246.109" y="245.767" width="31.5625" height="31.5625" filterUnits="userSpaceOnUse" color-interpolation-filters="sRGB">
<feFlood flood-opacity="0" result="BackgroundImageFix"/>
<feGaussianBlur in="BackgroundImageFix" stdDeviation="2"/>
<feComposite in2="SourceAlpha" operator="in" result="effect1_backgroundBlur_265_3295"/>
<feBlend mode="normal" in="SourceGraphic" in2="effect1_backgroundBlur_265_3295" result="shape"/>
</filter>
<filter id="filter1_b_265_3295" x="385.891" y="99.8894" width="64.5938" height="64.593" filterUnits="userSpaceOnUse" color-interpolation-filters="sRGB">
<feFlood flood-opacity="0" result="BackgroundImageFix"/>
<feGaussianBlur in="BackgroundImageFix" stdDeviation="2"/>
<feComposite in2="SourceAlpha" operator="in" result="effect1_backgroundBlur_265_3295"/>
<feBlend mode="normal" in="SourceGraphic" in2="effect1_backgroundBlur_265_3295" result="shape"/>
</filter>
<filter id="filter2_b_265_3295" x="67.7031" y="156.482" width="64.5938" height="64.5928" filterUnits="userSpaceOnUse" color-interpolation-filters="sRGB">
<feFlood flood-opacity="0" result="BackgroundImageFix"/>
<feGaussianBlur in="BackgroundImageFix" stdDeviation="2"/>
<feComposite in2="SourceAlpha" operator="in" result="effect1_backgroundBlur_265_3295"/>
<feBlend mode="normal" in="SourceGraphic" in2="effect1_backgroundBlur_265_3295" result="shape"/>
</filter>
<clipPath id="clip0_265_3295">
<path d="M0 9.99998C0 4.47713 4.47715 0 10 0H553C558.523 0 563 4.47715 563 10V298.963C563 304.486 558.523 308.963 553 308.963H10C4.47716 308.963 0 304.486 0 298.963V9.99998Z" fill="white" style="fill:white;fill-opacity:1;"/>
</clipPath>
</defs>
</svg>
