<svg width="84" height="24" viewBox="0 0 84 24" fill="none" xmlns="http://www.w3.org/2000/svg">
<g opacity="0.8">
<rect x="0.5" y="0.5" width="83" height="23" rx="3.5" stroke="#BAD1DF" style="stroke:#BAD1DF;stroke:color(display-p3 0.7280 0.8208 0.8729);stroke-opacity:1;"/>
<path d="M10.3932 17H8.97717V7.844H10.7652L14.7012 15.152V7.844H16.1052V17H14.3292L10.3932 9.704V17ZM22.5397 17.144C21.3397 17.144 20.4477 16.848 19.8637 16.256C19.2797 15.656 18.9877 14.824 18.9877 13.76V7.844H20.4037V13.76C20.4037 15.176 21.1157 15.884 22.5397 15.884C23.2757 15.884 23.8117 15.7 24.1477 15.332C24.4917 14.956 24.6637 14.432 24.6637 13.76V7.844H26.0797V13.76C26.0797 14.816 25.7877 15.644 25.2037 16.244C24.6197 16.844 23.7317 17.144 22.5397 17.144ZM30.3713 17H28.9553V7.844H31.3793L33.5513 15.272L35.7353 7.844H38.1593V17H36.7433V8.816L34.2593 17H32.8673L30.3713 8.876V17ZM41.124 17V7.844H44.664C45.72 7.844 46.492 8.08 46.98 8.552C47.372 8.936 47.568 9.464 47.568 10.136C47.568 10.68 47.436 11.14 47.172 11.516C46.916 11.892 46.56 12.12 46.104 12.2C46.72 12.264 47.192 12.488 47.52 12.872C47.856 13.256 48.024 13.76 48.024 14.384C48.024 14.784 47.956 15.14 47.82 15.452C47.692 15.764 47.512 16.024 47.28 16.232C46.96 16.52 46.572 16.72 46.116 16.832C45.668 16.944 45.232 17 44.808 17H41.124ZM44.604 11.732C45.092 11.732 45.468 11.62 45.732 11.396C46.004 11.164 46.14 10.836 46.14 10.412C46.14 10.028 46.024 9.728 45.792 9.512C45.504 9.248 45.024 9.116 44.352 9.116H42.54V11.732H44.604ZM44.64 15.728C44.96 15.728 45.252 15.704 45.516 15.656C45.788 15.6 46.02 15.484 46.212 15.308C46.476 15.068 46.608 14.724 46.608 14.276C46.608 13.708 46.436 13.34 46.092 13.172C45.748 13.004 45.336 12.92 44.856 12.92H42.54V15.728H44.64ZM56.6801 17H50.6561V7.844H56.6801V9.116H52.0721V11.78H56.1641V13.04H52.0721V15.728H56.6801V17ZM66.03 17H64.494L62.958 13.232H60.69V17H59.274V7.844H62.958C63.854 7.844 64.562 8.068 65.082 8.516C65.602 8.956 65.862 9.62 65.862 10.508C65.862 11.108 65.726 11.62 65.454 12.044C65.182 12.468 64.806 12.78 64.326 12.98L66.03 17ZM60.69 11.996H62.766C63.31 11.996 63.726 11.872 64.014 11.624C64.31 11.376 64.458 11.016 64.458 10.544C64.458 10.088 64.31 9.736 64.014 9.488C63.726 9.24 63.31 9.116 62.766 9.116H60.69V11.996ZM72.04 17.144C71.408 17.144 70.812 17.044 70.252 16.844C69.7 16.636 69.232 16.308 68.848 15.86C68.464 15.404 68.232 14.828 68.152 14.132H69.592C69.728 14.772 70.024 15.232 70.48 15.512C70.936 15.784 71.464 15.92 72.064 15.92C72.648 15.92 73.104 15.8 73.432 15.56C73.768 15.312 73.936 14.952 73.936 14.48C73.936 14.128 73.832 13.848 73.624 13.64C73.416 13.424 73.156 13.268 72.844 13.172C72.532 13.068 72.104 12.956 71.56 12.836C70.896 12.692 70.36 12.548 69.952 12.404C69.544 12.252 69.196 12.012 68.908 11.684C68.62 11.348 68.476 10.888 68.476 10.304C68.476 9.76 68.608 9.292 68.872 8.9C69.136 8.508 69.504 8.212 69.976 8.012C70.448 7.804 70.988 7.7 71.596 7.7C72.492 7.7 73.264 7.932 73.912 8.396C74.56 8.852 74.956 9.54 75.1 10.46H73.684C73.564 9.94 73.312 9.556 72.928 9.308C72.552 9.06 72.1 8.936 71.572 8.936C71.044 8.936 70.632 9.048 70.336 9.272C70.04 9.488 69.892 9.792 69.892 10.184C69.892 10.488 69.988 10.732 70.18 10.916C70.38 11.1 70.624 11.24 70.912 11.336C71.2 11.432 71.6 11.536 72.112 11.648C72.808 11.8 73.368 11.956 73.792 12.116C74.224 12.276 74.592 12.54 74.896 12.908C75.2 13.268 75.352 13.764 75.352 14.396C75.352 15.244 75.06 15.916 74.476 16.412C73.9 16.9 73.088 17.144 72.04 17.144Z" fill="white" style="fill:white;fill-opacity:1;"/>
</g>
</svg>
