<svg width="15" height="15" viewBox="0 0 15 15" fill="none" xmlns="http://www.w3.org/2000/svg">
<path d="M1.81222 0.679692C1.85606 0.667035 1.93518 0.651213 1.98864 0.642775C2.0421 0.634337 2.14795 0.628008 2.22386 0.626953C2.30084 0.626953 2.41204 0.633282 2.47512 0.642775C2.53713 0.652268 2.62801 0.671254 2.67827 0.684966C2.72852 0.699733 2.80978 0.728212 2.86003 0.748253C2.91028 0.768293 2.9894 0.806265 3.03645 0.832635C3.08349 0.860059 3.15834 0.907524 3.20217 0.940222C3.24601 0.97292 3.31551 1.02988 3.35614 1.06785C3.3957 1.10582 3.45664 1.17016 3.49085 1.2113C3.524 1.25244 3.57425 1.31783 3.59991 1.35897C3.62664 1.40011 3.66941 1.47288 3.694 1.52246C3.71859 1.57203 3.75281 1.64798 3.76885 1.69122C3.78488 1.73447 3.81268 1.82729 3.82872 1.89691C3.85652 2.01504 3.85866 2.03825 3.85866 2.24498C3.85866 2.43273 3.85545 2.48231 3.8362 2.57196C3.82337 2.62998 3.79771 2.71963 3.77954 2.77237C3.76136 2.82511 3.71966 2.92004 3.68759 2.98333C3.65551 3.04661 3.59671 3.14365 3.55715 3.1985C3.51758 3.25335 3.43953 3.34301 3.38287 3.39891C3.3262 3.45481 3.23532 3.53181 3.17972 3.57084C3.12412 3.60986 3.02576 3.66788 2.9616 3.69952C2.89745 3.73222 2.80122 3.7723 2.74776 3.78918C2.6943 3.80605 2.61518 3.82715 2.57135 3.83664C2.52751 3.84508 2.43342 3.85774 2.36285 3.86512C2.26556 3.87461 2.20354 3.87461 2.10625 3.86512C2.03568 3.85774 1.94159 3.84508 1.89775 3.83664C1.85392 3.82715 1.7748 3.80605 1.72134 3.78812C1.66788 3.77125 1.58234 3.73644 1.52888 3.71112C1.47649 3.68581 1.3963 3.64256 1.35247 3.61408C1.30863 3.5856 1.23165 3.52865 1.18139 3.48751C1.13114 3.44637 1.05737 3.3757 1.01781 3.33035C0.977178 3.28394 0.915165 3.20483 0.879881 3.15209C0.844598 3.09935 0.797553 3.0213 0.7751 2.97805C0.752647 2.93481 0.717364 2.85148 0.697049 2.79347C0.676734 2.73545 0.648935 2.63841 0.635036 2.57724C0.612583 2.4802 0.609375 2.43906 0.609375 2.25026C0.609375 2.08255 0.613652 2.01293 0.62969 1.9391C0.640382 1.88636 0.664973 1.79459 0.685288 1.73341C0.706672 1.67224 0.743024 1.58258 0.767616 1.53301C0.792207 1.48343 0.843529 1.39589 0.883089 1.33787C0.922649 1.27986 0.997493 1.18809 1.04881 1.13325C1.1012 1.0784 1.18246 1.00456 1.22951 0.967646C1.27655 0.931784 1.36102 0.875881 1.41662 0.843183C1.47222 0.810484 1.5663 0.765129 1.62511 0.741924C1.68392 0.719774 1.76838 0.691295 1.81222 0.679692Z" fill="#EEF1F4" style="fill:#EEF1F4;fill:color(display-p3 0.9333 0.9451 0.9569);fill-opacity:1;"/>
<path d="M10.2642 4.787C10.3284 4.7775 10.4567 4.7659 10.5475 4.76168C10.6384 4.75746 10.7731 4.75641 10.8469 4.75852C10.9207 4.75957 11.0383 4.7659 11.1089 4.77223C11.1794 4.7775 11.2874 4.78911 11.3494 4.7986C11.4114 4.80704 11.5291 4.82919 11.6114 4.84606C11.6937 4.86399 11.8381 4.90408 11.9321 4.93467C12.0262 4.96525 12.1588 5.01588 12.2262 5.04542C12.2935 5.07495 12.3919 5.12347 12.4454 5.153C12.4988 5.18254 12.5876 5.23633 12.6432 5.27325C12.6988 5.31017 12.7854 5.3724 12.8356 5.41142C12.8859 5.45045 12.98 5.53483 13.0441 5.59917C13.1093 5.66246 13.1949 5.75528 13.2344 5.80486C13.2751 5.85443 13.3446 5.94936 13.3905 6.01581C13.4354 6.08226 13.5017 6.18985 13.5359 6.25314C13.5712 6.31642 13.6236 6.42612 13.6546 6.49574C13.6846 6.56535 13.7316 6.68665 13.7583 6.7647C13.7851 6.84276 13.8236 6.97566 13.8449 7.06004C13.8653 7.14442 13.892 7.26783 13.9048 7.33428C13.9166 7.40074 13.9369 7.5368 13.9732 7.81421L13.9797 13.8212H11.2318L11.2286 11.334C11.2254 9.47443 11.2222 8.82574 11.2126 8.75823L11.2115 8.7514C11.204 8.70111 11.1918 8.62078 11.1826 8.56837C11.173 8.51353 11.1548 8.42282 11.1409 8.36797C11.127 8.31312 11.0982 8.21819 11.0768 8.15701C11.0554 8.09583 11.0116 7.99669 10.9795 7.93551C10.9474 7.87433 10.8908 7.78467 10.8533 7.7351C10.8159 7.68553 10.7528 7.61486 10.7122 7.57688C10.6716 7.53891 10.6074 7.48723 10.5689 7.46086C10.5304 7.43554 10.4513 7.3923 10.3925 7.36382C10.3337 7.33639 10.2396 7.30264 10.184 7.28787C10.1284 7.27311 10.0439 7.25518 9.9969 7.24779C9.94986 7.24041 9.8269 7.23514 9.72426 7.23514C9.62162 7.23408 9.49438 7.24041 9.44092 7.24885C9.38746 7.25623 9.29658 7.27416 9.23778 7.28787C9.17897 7.30264 9.08809 7.33112 9.03463 7.35222C8.98117 7.37226 8.89243 7.41656 8.83683 7.4482C8.78123 7.4809 8.69462 7.54102 8.64437 7.58321C8.59412 7.62435 8.52462 7.69396 8.48827 7.73615C8.45192 7.7794 8.4006 7.84796 8.37494 7.88804C8.34821 7.92812 8.30437 8.00407 8.27764 8.05681C8.25091 8.10955 8.21242 8.1992 8.1921 8.25722C8.17179 8.31523 8.14292 8.41227 8.12795 8.47344C8.11298 8.53462 8.08946 8.65065 8.05204 8.87953L8.04562 13.8212H5.39402V5.02432H8.04562L8.05097 6.19512L8.11726 6.09703C8.15361 6.04429 8.21563 5.95991 8.25519 5.91033C8.29582 5.86076 8.39739 5.75106 8.48293 5.66668C8.56953 5.5823 8.68928 5.47366 8.75129 5.42514C8.81331 5.37662 8.91916 5.30173 8.98652 5.25743C9.05387 5.21313 9.18218 5.1414 9.26985 5.0971C9.3586 5.0528 9.48583 4.99479 9.55319 4.96842C9.62055 4.94205 9.73388 4.90408 9.80445 4.88404C9.87502 4.864 9.98087 4.83763 10.0397 4.82602C10.0985 4.81337 10.2001 4.79649 10.2642 4.787Z" fill="#EEF1F4" style="fill:#EEF1F4;fill:color(display-p3 0.9333 0.9451 0.9569);fill-opacity:1;"/>
<path d="M0.871328 13.8212V9.42274V5.02432H3.62985V13.8212H0.871328Z" fill="#EEF1F4" style="fill:#EEF1F4;fill:color(display-p3 0.9333 0.9451 0.9569);fill-opacity:1;"/>
<path d="M1.81222 0.679692C1.85606 0.667035 1.93518 0.651213 1.98864 0.642775C2.0421 0.634337 2.14795 0.628008 2.22386 0.626953C2.30084 0.626953 2.41204 0.633282 2.47512 0.642775C2.53713 0.652268 2.62801 0.671254 2.67827 0.684966C2.72852 0.699733 2.80978 0.728212 2.86003 0.748253C2.91028 0.768293 2.9894 0.806265 3.03645 0.832635C3.08349 0.860059 3.15834 0.907524 3.20217 0.940222C3.24601 0.97292 3.31551 1.02988 3.35614 1.06785C3.3957 1.10582 3.45664 1.17016 3.49085 1.2113C3.524 1.25244 3.57425 1.31783 3.59991 1.35897C3.62664 1.40011 3.66941 1.47288 3.694 1.52246C3.71859 1.57203 3.75281 1.64798 3.76885 1.69122C3.78488 1.73447 3.81268 1.82729 3.82872 1.89691C3.85652 2.01504 3.85866 2.03825 3.85866 2.24498C3.85866 2.43273 3.85545 2.48231 3.8362 2.57196C3.82337 2.62998 3.79771 2.71963 3.77954 2.77237C3.76136 2.82511 3.71966 2.92004 3.68759 2.98333C3.65551 3.04661 3.59671 3.14365 3.55715 3.1985C3.51758 3.25335 3.43953 3.34301 3.38287 3.39891C3.3262 3.45481 3.23532 3.53181 3.17972 3.57084C3.12412 3.60986 3.02576 3.66788 2.9616 3.69952C2.89745 3.73222 2.80122 3.7723 2.74776 3.78918C2.6943 3.80605 2.61518 3.82715 2.57135 3.83664C2.52751 3.84508 2.43342 3.85774 2.36285 3.86512C2.26556 3.87461 2.20354 3.87461 2.10625 3.86512C2.03568 3.85774 1.94159 3.84508 1.89775 3.83664C1.85392 3.82715 1.7748 3.80605 1.72134 3.78812C1.66788 3.77125 1.58234 3.73644 1.52888 3.71112C1.47649 3.68581 1.3963 3.64256 1.35247 3.61408C1.30863 3.5856 1.23165 3.52865 1.18139 3.48751C1.13114 3.44637 1.05737 3.3757 1.01781 3.33035C0.977178 3.28394 0.915165 3.20483 0.879881 3.15209C0.844598 3.09935 0.797553 3.0213 0.7751 2.97805C0.752647 2.93481 0.717364 2.85148 0.697049 2.79347C0.676734 2.73545 0.648935 2.63841 0.635036 2.57724C0.612583 2.4802 0.609375 2.43906 0.609375 2.25026C0.609375 2.08255 0.613652 2.01293 0.62969 1.9391C0.640382 1.88636 0.664973 1.79459 0.685288 1.73341C0.706672 1.67224 0.743024 1.58258 0.767616 1.53301C0.792207 1.48343 0.843529 1.39589 0.883089 1.33787C0.922649 1.27986 0.997493 1.18809 1.04881 1.13325C1.1012 1.0784 1.18246 1.00456 1.22951 0.967646C1.27655 0.931784 1.36102 0.875881 1.41662 0.843183C1.47222 0.810484 1.5663 0.765129 1.62511 0.741924C1.68392 0.719774 1.76838 0.691295 1.81222 0.679692Z" stroke="#EEF1F4" style="stroke:#EEF1F4;stroke:color(display-p3 0.9333 0.9451 0.9569);stroke-opacity:1;" stroke-width="0.5"/>
<path d="M10.2642 4.787C10.3284 4.7775 10.4567 4.7659 10.5475 4.76168C10.6384 4.75746 10.7731 4.75641 10.8469 4.75852C10.9207 4.75957 11.0383 4.7659 11.1089 4.77223C11.1794 4.7775 11.2874 4.78911 11.3494 4.7986C11.4114 4.80704 11.5291 4.82919 11.6114 4.84606C11.6937 4.86399 11.8381 4.90408 11.9321 4.93467C12.0262 4.96525 12.1588 5.01588 12.2262 5.04542C12.2935 5.07495 12.3919 5.12347 12.4454 5.153C12.4988 5.18254 12.5876 5.23633 12.6432 5.27325C12.6988 5.31017 12.7854 5.3724 12.8356 5.41142C12.8859 5.45045 12.98 5.53483 13.0441 5.59917C13.1093 5.66246 13.1949 5.75528 13.2344 5.80486C13.2751 5.85443 13.3446 5.94936 13.3905 6.01581C13.4354 6.08226 13.5017 6.18985 13.5359 6.25314C13.5712 6.31642 13.6236 6.42612 13.6546 6.49574C13.6846 6.56535 13.7316 6.68665 13.7583 6.7647C13.7851 6.84276 13.8236 6.97566 13.8449 7.06004C13.8653 7.14442 13.892 7.26783 13.9048 7.33428C13.9166 7.40074 13.9369 7.5368 13.9732 7.81421L13.9797 13.8212H11.2318L11.2286 11.334C11.2254 9.47443 11.2222 8.82574 11.2126 8.75823L11.2115 8.7514C11.204 8.70111 11.1918 8.62078 11.1826 8.56837C11.173 8.51353 11.1548 8.42282 11.1409 8.36797C11.127 8.31312 11.0982 8.21819 11.0768 8.15701C11.0554 8.09583 11.0116 7.99669 10.9795 7.93551C10.9474 7.87433 10.8908 7.78467 10.8533 7.7351C10.8159 7.68553 10.7528 7.61486 10.7122 7.57688C10.6716 7.53891 10.6074 7.48723 10.5689 7.46086C10.5304 7.43554 10.4513 7.3923 10.3925 7.36382C10.3337 7.33639 10.2396 7.30264 10.184 7.28787C10.1284 7.27311 10.0439 7.25518 9.9969 7.24779C9.94986 7.24041 9.8269 7.23514 9.72426 7.23514C9.62162 7.23408 9.49438 7.24041 9.44092 7.24885C9.38746 7.25623 9.29658 7.27416 9.23778 7.28787C9.17897 7.30264 9.08809 7.33112 9.03463 7.35222C8.98117 7.37226 8.89243 7.41656 8.83683 7.4482C8.78123 7.4809 8.69462 7.54102 8.64437 7.58321C8.59412 7.62435 8.52462 7.69396 8.48827 7.73615C8.45192 7.7794 8.4006 7.84796 8.37494 7.88804C8.34821 7.92812 8.30437 8.00407 8.27764 8.05681C8.25091 8.10955 8.21242 8.1992 8.1921 8.25722C8.17179 8.31523 8.14292 8.41227 8.12795 8.47344C8.11298 8.53462 8.08946 8.65065 8.05204 8.87953L8.04562 13.8212H5.39402V5.02432H8.04562L8.05097 6.19512L8.11726 6.09703C8.15361 6.04429 8.21563 5.95991 8.25519 5.91033C8.29582 5.86076 8.39739 5.75106 8.48293 5.66668C8.56953 5.5823 8.68928 5.47366 8.75129 5.42514C8.81331 5.37662 8.91916 5.30173 8.98652 5.25743C9.05387 5.21313 9.18218 5.1414 9.26985 5.0971C9.3586 5.0528 9.48583 4.99479 9.55319 4.96842C9.62055 4.94205 9.73388 4.90408 9.80445 4.88404C9.87502 4.864 9.98087 4.83763 10.0397 4.82602C10.0985 4.81337 10.2001 4.79649 10.2642 4.787Z" stroke="#EEF1F4" style="stroke:#EEF1F4;stroke:color(display-p3 0.9333 0.9451 0.9569);stroke-opacity:1;" stroke-width="0.5"/>
<path d="M0.871328 13.8212V9.42274V5.02432H3.62985V13.8212H0.871328Z" stroke="#EEF1F4" style="stroke:#EEF1F4;stroke:color(display-p3 0.9333 0.9451 0.9569);stroke-opacity:1;" stroke-width="0.5"/>
</svg>
