<svg width="66" height="66" viewBox="0 0 66 66" fill="none" xmlns="http://www.w3.org/2000/svg">
<path d="M36.3421 52.9838C36.4014 46.9259 34.8655 41.9997 32.9119 41.9805C30.9582 41.9615 29.3264 46.8569 29.2673 52.9146C29.208 58.9725 30.7438 63.8989 32.6974 63.9179C34.6512 63.937 36.283 59.0417 36.3421 52.9838Z" fill="#27344A" style="fill:#27344A;fill:color(display-p3 0.1529 0.2039 0.2902);fill-opacity:1;"/>
<path d="M25.0101 51.6092C28.3353 46.5451 29.7069 41.5706 28.0738 40.4982C26.4406 39.4259 22.421 42.6617 19.0959 47.7257C15.7707 52.7898 14.3991 57.7642 16.0322 58.8367C17.6655 59.9091 21.6849 56.6732 25.0101 51.6092Z" fill="#27344A" style="fill:#27344A;fill:color(display-p3 0.1529 0.2039 0.2902);fill-opacity:1;"/>
<path d="M16.2047 44.3427C21.74 41.8806 25.5834 38.4376 24.7893 36.6524C23.9953 34.8672 18.8645 35.4161 13.3292 37.8783C7.79396 40.3403 3.95048 43.7834 4.74452 45.5686C5.53855 47.3538 10.6694 46.8049 16.2047 44.3427Z" fill="#27344A" style="fill:#27344A;fill:color(display-p3 0.1529 0.2039 0.2902);fill-opacity:1;"/>
<path d="M24.1341 31.6454C24.4314 29.7144 19.8184 27.4019 13.8308 26.4803C7.84316 25.5586 2.7483 26.377 2.45109 28.3081C2.15388 30.2391 6.76686 32.5515 12.7545 33.4731C18.742 34.3947 23.837 33.5763 24.1341 31.6454Z" fill="#27344A" style="fill:#27344A;fill:color(display-p3 0.1529 0.2039 0.2902);fill-opacity:1;"/>
<path d="M26.2836 27.0457C27.5775 25.5818 24.9464 21.1428 20.4071 17.1309C15.8677 13.119 11.139 11.0535 9.84517 12.5175C8.55133 13.9815 11.1824 18.4205 15.7218 22.4324C20.2611 26.4443 24.9899 28.5097 26.2836 27.0457Z" fill="#27344A" style="fill:#27344A;fill:color(display-p3 0.1529 0.2039 0.2902);fill-opacity:1;"/>
<path d="M30.5621 24.3572C32.4421 23.8253 32.6288 18.6684 30.9794 12.8392C29.3299 7.00997 26.4687 2.7157 24.5887 3.24767C22.7088 3.77964 22.522 8.93641 24.1715 14.7657C25.8209 20.5948 28.6822 24.8892 30.5621 24.3572Z" fill="#27344A" style="fill:#27344A;fill:color(display-p3 0.1529 0.2039 0.2902);fill-opacity:1;"/>
<path d="M42.1864 14.9482C43.9505 9.15265 43.8655 3.99319 41.9964 3.42426C40.1273 2.85531 37.182 7.09232 35.4178 12.8879C33.6537 18.6834 33.7387 23.8429 35.6079 24.4118C37.477 24.9808 40.4223 20.7438 42.1864 14.9482Z" fill="#27344A" style="fill:#27344A;fill:color(display-p3 0.1529 0.2039 0.2902);fill-opacity:1;"/>
<path d="M50.4915 22.779C55.1085 18.8566 57.8259 14.4698 56.5608 12.9809C55.2958 11.492 50.5276 13.4647 45.9108 17.3869C41.2938 21.3093 38.5766 25.696 39.8415 27.185C41.1065 28.674 45.8747 26.7014 50.4915 22.779Z" fill="#27344A" style="fill:#27344A;fill:color(display-p3 0.1529 0.2039 0.2902);fill-opacity:1;"/>
<path d="M53.2424 33.8601C59.2471 33.0567 63.9047 30.8357 63.6456 28.8991C63.3866 26.9627 58.3088 26.0441 52.3041 26.8473C46.2996 27.6507 41.6418 29.8717 41.9009 31.8083C42.16 33.7447 47.2377 34.6634 53.2424 33.8601Z" fill="#27344A" style="fill:#27344A;fill:color(display-p3 0.1529 0.2039 0.2902);fill-opacity:1;"/>
<path d="M60.9793 46.1223C61.8084 44.3532 58.0336 40.835 52.5479 38.2642C47.0624 35.6934 41.9433 35.0435 41.1142 36.8126C40.2851 38.5818 44.0599 42.1 49.5456 44.6708C55.0311 47.2415 60.1502 47.8915 60.9793 46.1223Z" fill="#27344A" style="fill:#27344A;fill:color(display-p3 0.1529 0.2039 0.2902);fill-opacity:1;"/>
<path d="M49.449 59.1752C51.103 58.1353 49.8297 53.1346 46.6051 48.006C43.3804 42.8774 39.4255 39.563 37.7715 40.6029C36.1175 41.6428 37.3908 46.6435 40.6154 51.7721C43.8401 56.9007 47.795 60.2152 49.449 59.1752Z" fill="#27344A" style="fill:#27344A;fill:color(display-p3 0.1529 0.2039 0.2902);fill-opacity:1;"/>
</svg>
