<svg width="48" height="48" viewBox="0 0 48 48" fill="none" xmlns="http://www.w3.org/2000/svg">
<path d="M47.8037 27.0474C49.4834 13.8978 40.1971 1.87599 27.0714 0.19629C13.9458 -1.48341 1.87599 7.80292 0.19629 20.9286C-1.48341 34.0542 7.80292 46.1 20.9286 47.8037C34.0782 49.4834 46.1 40.1971 47.8037 27.0474Z" fill="#27344A" style="fill:#27344A;fill:color(display-p3 0.1529 0.2039 0.2902);fill-opacity:1;"/>
<path d="M32.6613 15.4093L22.5352 25.5355L19.6797 22.68C29.6379 12.7218 30.6217 13.5857 32.6613 15.4093Z" fill="white" style="fill:white;fill-opacity:1;"/>
<path d="M22.5335 25.7755C22.4615 25.7755 22.4135 25.7515 22.3655 25.7035L19.486 22.848C19.3901 22.752 19.3901 22.608 19.486 22.5121C29.6122 12.3859 30.668 13.3457 32.8036 15.2654C32.8516 15.3134 32.8756 15.3614 32.8756 15.4333C32.8756 15.5053 32.8516 15.5533 32.8036 15.6013L22.6775 25.7035C22.6535 25.7515 22.5815 25.7755 22.5335 25.7755ZM20.014 22.68L22.5335 25.1996L32.2997 15.4333C30.5241 13.8496 29.3243 13.3697 20.014 22.68Z" fill="#27344A" style="fill:#27344A;fill:color(display-p3 0.1529 0.2039 0.2902);fill-opacity:1;"/>
<path d="M25.4392 28.4396L22.6797 25.6801L32.8059 15.554C35.5174 18.2895 31.4621 22.7287 25.4392 28.4396Z" fill="white" style="fill:white;fill-opacity:1;"/>
<path d="M25.4364 28.6791C25.3644 28.6791 25.3164 28.6551 25.2684 28.6071L22.5089 25.8476C22.4609 25.7996 22.4609 25.7516 22.4609 25.6796C22.4609 25.6076 22.4849 25.5596 22.5329 25.5116L32.6591 15.3855C32.7551 15.2895 32.8991 15.2895 32.995 15.3855C33.6189 15.9614 33.9549 16.7772 33.9309 17.6171C33.8829 20.2806 30.8594 23.664 25.6284 28.6071C25.5564 28.6551 25.4844 28.6791 25.4364 28.6791ZM23.0128 25.6796C24.5486 27.2393 25.1964 27.8632 25.4364 28.1032C29.4677 24.2639 33.379 20.3286 33.403 17.6171C33.427 16.9932 33.187 16.3693 32.7791 15.8894L23.0128 25.6796Z" fill="#27344A" style="fill:#27344A;fill:color(display-p3 0.1529 0.2039 0.2902);fill-opacity:1;"/>
<path d="M19.725 22.7525L21.7646 24.7921C21.8126 24.8401 21.8126 24.8881 21.7646 24.9361C21.7406 24.9601 21.7406 24.9601 21.7166 24.9601L17.4934 25.8719C17.2774 25.8959 17.0855 25.7519 17.0375 25.536C17.0135 25.416 17.0615 25.296 17.1335 25.224L19.581 22.7765C19.629 22.7285 19.701 22.7045 19.725 22.7525Z" fill="white" style="fill:white;fill-opacity:1;"/>
<path d="M17.4208 26.1112C17.0608 26.1112 16.7969 25.8232 16.7969 25.4633C16.7969 25.2953 16.8689 25.1274 16.9888 25.0074L19.4364 22.5598C19.5804 22.4399 19.7723 22.4399 19.9163 22.5598L21.9559 24.5995C22.0999 24.7194 22.0999 24.9354 21.9559 25.0794C21.908 25.1274 21.86 25.1514 21.788 25.1754L17.5647 26.0872C17.5167 26.0872 17.4688 26.1112 17.4208 26.1112ZM19.6524 23.0158L17.3008 25.3673C17.2528 25.4153 17.2288 25.4873 17.2768 25.5593C17.3008 25.6313 17.3728 25.6553 17.4448 25.6313L21.404 24.7674L19.6524 23.0158Z" fill="#27344A" style="fill:#27344A;fill:color(display-p3 0.1529 0.2039 0.2902);fill-opacity:1;"/>
<path d="M38.0084 9.79473C36.4726 8.307 34.0011 8.35499 32.5134 9.91471C31.0256 11.4744 31.0736 13.922 32.6333 15.4097C33.9051 16.6335 35.8248 16.8495 37.3365 15.9376L34.601 13.2021L38.0084 9.79473Z" fill="white" style="fill:white;fill-opacity:1;"/>
<path d="M35.3226 16.7294C33.043 16.7294 31.1953 14.8817 31.1953 12.6021C31.1953 10.3225 33.043 8.47485 35.3226 8.47485C36.3784 8.47485 37.4102 8.88278 38.1781 9.62665C38.226 9.67464 38.25 9.72263 38.25 9.79462C38.25 9.8666 38.226 9.91459 38.1781 9.96258L34.9386 13.202L37.4822 15.7455C37.5782 15.8415 37.5782 15.9855 37.4822 16.0815C37.4582 16.1055 37.4582 16.1055 37.4342 16.1295C36.8103 16.5134 36.0664 16.7294 35.3226 16.7294ZM35.3226 8.97876C33.3069 8.97876 31.6752 10.6105 31.6992 12.6261C31.6992 14.6417 33.3309 16.2734 35.3466 16.2495C35.8985 16.2495 36.4504 16.1295 36.9543 15.8655L34.4347 13.37C34.3867 13.322 34.3627 13.274 34.3627 13.202C34.3627 13.13 34.3867 13.082 34.4347 13.034L37.6501 9.81861C37.0023 9.26671 36.1864 8.97876 35.3226 8.97876Z" fill="#27344A" style="fill:#27344A;fill:color(display-p3 0.1529 0.2039 0.2902);fill-opacity:1;"/>
<path d="M38.0809 9.86672L38.0329 9.81873L34.6016 13.2021L37.3131 15.9136C37.577 15.7457 37.841 15.5537 38.0569 15.3377C39.5927 13.826 39.5927 11.3784 38.0809 9.86672Z" fill="white" style="fill:white;fill-opacity:1;"/>
<path d="M37.3427 16.1776C37.2707 16.1776 37.2227 16.1536 37.1747 16.1056L34.4392 13.3701C34.3912 13.3221 34.3672 13.2741 34.3672 13.2022C34.3672 13.1302 34.3912 13.0822 34.4392 13.0342L37.8466 9.6268C37.9425 9.53081 38.0865 9.53081 38.1825 9.6268L38.2545 9.67479C39.8622 11.2825 39.8622 13.874 38.2785 15.5057C38.0385 15.7457 37.7746 15.9617 37.4866 16.1296C37.4146 16.1536 37.3666 16.1776 37.3427 16.1776ZM34.9431 13.2022L37.3666 15.6257C37.5586 15.5057 37.7506 15.3378 37.8946 15.1938C39.2623 13.826 39.3343 11.5944 38.0145 10.1547L34.9431 13.2022Z" fill="#27344A" style="fill:#27344A;fill:color(display-p3 0.1529 0.2039 0.2902);fill-opacity:1;"/>
<path d="M33.0637 15.8415C32.4878 15.2656 31.552 15.2656 30.9761 15.8415L21.9297 24.8878L23.4414 26.3996L33.0157 18.0011C33.6396 17.4732 33.6876 16.5373 33.1597 15.9135C33.1117 15.8895 33.0877 15.8655 33.0637 15.8415Z" fill="white" style="fill:white;fill-opacity:1;"/>
<path d="M23.4236 26.6395C23.3516 26.6395 23.3036 26.6155 23.2556 26.5675L21.7439 25.0558C21.6479 24.9598 21.6479 24.8158 21.7439 24.7198L30.7902 15.6735C31.4621 15.0016 32.5419 15.0016 33.2138 15.6735C33.8857 16.3453 33.8857 17.4251 33.2138 18.097C33.1898 18.121 33.1658 18.145 33.1418 18.169L23.5675 26.5675C23.5435 26.6155 23.4955 26.6395 23.4236 26.6395ZM22.2718 24.8878L23.4476 26.0636L32.8539 17.8091C33.3818 17.3772 33.4298 16.5853 32.9978 16.0574C32.5659 15.5295 31.7741 15.4815 31.2461 15.9134C31.2222 15.9374 31.1982 15.9614 31.1502 15.9854L22.2718 24.8878Z" fill="#27344A" style="fill:#27344A;fill:color(display-p3 0.1529 0.2039 0.2902);fill-opacity:1;"/>
<path d="M14.9961 35.1819C14.9001 35.2299 14.8521 35.3259 14.8761 35.4219L15.2841 37.1495C15.38 37.3895 15.2361 37.6775 14.9721 37.7494C14.7802 37.8214 14.5642 37.7494 14.4442 37.6055L11.8047 34.9899L20.4191 26.3755L23.3946 26.4235L25.4102 28.4391C24.9303 28.847 22.0268 31.6545 14.9961 35.1819Z" fill="white" style="fill:white;fill-opacity:1;"/>
<path d="M14.8086 37.9898C14.6166 37.9898 14.4247 37.9179 14.3047 37.7739L11.6892 35.1584C11.6412 35.1104 11.6172 35.0624 11.6172 34.9904C11.6172 34.9184 11.6412 34.8704 11.6892 34.8224L20.3036 26.208C20.3516 26.16 20.4236 26.136 20.4716 26.136L23.4471 26.184C23.519 26.184 23.567 26.208 23.615 26.256L25.6307 28.2716C25.6787 28.3196 25.7026 28.3916 25.7026 28.4636C25.7026 28.5356 25.6787 28.5835 25.6067 28.6315L25.4387 28.7755C22.8952 31.0071 19.4398 33.2387 15.1446 35.3743L15.5525 37.078C15.6245 37.39 15.4805 37.7259 15.1925 37.8939C15.0486 37.9659 14.9286 37.9898 14.8086 37.9898ZM12.1691 34.9904L14.6406 37.4379C14.7126 37.5579 14.8566 37.6059 14.9766 37.5339C15.0966 37.4619 15.1446 37.318 15.0726 37.198L14.6646 35.4703C14.6166 35.2543 14.7126 35.0624 14.9046 34.9664C19.1518 32.8308 22.5832 30.6232 25.1028 28.4396L23.3271 26.6639L20.5676 26.6159L12.1691 34.9904Z" fill="#27344A" style="fill:#27344A;fill:color(display-p3 0.1529 0.2039 0.2902);fill-opacity:1;"/>
<path d="M9.77046 37.0534L11.8341 34.9897L14.9055 38.0612L10.0104 37.7253C9.79446 37.7013 9.65049 37.5093 9.67448 37.2933C9.67448 37.1974 9.69848 37.1014 9.77046 37.0534Z" fill="white" style="fill:white;fill-opacity:1;"/>
<path d="M14.9029 38.2777L9.9838 37.9417C9.62386 37.9177 9.3839 37.6058 9.4079 37.2459C9.4319 37.1019 9.47989 36.9579 9.59987 36.8619L11.6635 34.7983C11.7595 34.7023 11.9034 34.7023 11.9994 34.7983L15.0709 37.8698C15.1429 37.9417 15.1669 38.0377 15.1189 38.1337C15.0709 38.2297 14.9989 38.2777 14.9029 38.2777ZM11.8315 35.3262L9.9358 37.2219C9.86382 37.2699 9.86382 37.3898 9.9358 37.4378C9.9598 37.4618 9.9838 37.4858 10.0318 37.4858L14.279 37.7738L11.8315 35.3262Z" fill="#27344A" style="fill:#27344A;fill:color(display-p3 0.1529 0.2039 0.2902);fill-opacity:1;"/>
<path d="M19.5837 27.4795C19.4397 27.4795 19.3438 27.3595 19.3438 27.2395C19.3438 27.1675 19.3677 27.1196 19.4157 27.0716L21.7433 24.744C21.8393 24.648 21.9833 24.648 22.0793 24.744L23.591 26.2557C23.663 26.3277 23.687 26.3997 23.663 26.4957C23.639 26.5677 23.567 26.6396 23.471 26.6636L19.6317 27.4795C19.6077 27.4795 19.5837 27.4795 19.5837 27.4795ZM21.9113 25.2479L20.3276 26.8316L22.9191 26.2797L21.9113 25.2479Z" fill="#27344A" style="fill:#27344A;fill:color(display-p3 0.1529 0.2039 0.2902);fill-opacity:1;"/>
<path d="M23.4004 26.4236L20.7609 26.9995C20.5689 27.0475 20.377 26.9276 20.329 26.7356C20.305 26.6156 20.329 26.4956 20.425 26.3996L21.8887 24.9359L23.4004 26.4236Z" fill="white" style="fill:white;fill-opacity:1;"/>
<path d="M20.7093 27.2395C20.3733 27.2395 20.1094 26.9756 20.1094 26.6396C20.1094 26.4717 20.1814 26.3277 20.2773 26.2077L21.7411 24.744C21.8371 24.648 21.981 24.648 22.077 24.744L23.5887 26.2557C23.6607 26.3277 23.6847 26.3997 23.6607 26.4957C23.6367 26.5677 23.5648 26.6396 23.4688 26.6636L20.8292 27.2395C20.7813 27.2395 20.7333 27.2395 20.7093 27.2395ZM21.9091 25.2479L20.6133 26.5437C20.5653 26.5917 20.5653 26.6396 20.5893 26.6876C20.6133 26.7356 20.6613 26.7596 20.7333 26.7596L22.9409 26.2797L21.9091 25.2479Z" fill="#27344A" style="fill:#27344A;fill:color(display-p3 0.1529 0.2039 0.2902);fill-opacity:1;"/>
<path d="M38.1063 12.1704C38.0583 12.0265 37.8903 11.9545 37.7464 12.0025C37.6024 12.0505 37.5304 12.2184 37.5784 12.3624C37.5784 12.3864 37.6024 12.4104 37.6024 12.4344C37.7464 12.7223 37.6984 13.0823 37.5064 13.3462C37.4104 13.4662 37.4344 13.6342 37.5304 13.7302C37.6504 13.8261 37.8184 13.8022 37.9143 13.6822C38.2743 13.2263 38.3463 12.6504 38.1063 12.1704Z" fill="#27344A" style="fill:#27344A;fill:color(display-p3 0.1529 0.2039 0.2902);fill-opacity:1;"/>
</svg>
