<svg width="141" height="26" viewBox="0 0 141 26" fill="none" xmlns="http://www.w3.org/2000/svg">
<path d="M46.7218 13.7854C46.8195 13.7854 46.8879 13.6877 46.8586 13.5948C45.9303 10.6047 45.4026 8.90936 45.2854 8.50872C45.1632 8.1032 45.0753 7.78074 45.0264 7.54134C44.8115 8.36704 44.2105 10.3849 43.2187 13.5948C43.1894 13.6877 43.2578 13.7854 43.3555 13.7854H46.7218ZM48.6615 19.6826L47.6794 16.453C47.6599 16.3944 47.6061 16.3504 47.5426 16.3504H42.4956C42.4321 16.3504 42.3783 16.3895 42.3588 16.453L41.3767 19.6826C41.3572 19.7412 41.3035 19.7852 41.2399 19.7852H38.2547C38.157 19.7852 38.0837 19.6874 38.1179 19.5897L43.1063 5.39647C43.1259 5.33784 43.1796 5.29875 43.2431 5.29875H46.7804C46.844 5.29875 46.8977 5.33784 46.9172 5.39647L51.9252 19.5897C51.9594 19.6826 51.891 19.7852 51.7884 19.7852H48.8032C48.7396 19.7852 48.6859 19.7461 48.6664 19.6826" fill="#0052CC" style="fill:#0052CC;fill:color(display-p3 0.0000 0.3216 0.8000);fill-opacity:1;"/>
<path d="M56.8652 12.002C56.8652 12.0802 56.9287 12.1486 57.0117 12.1486H57.8716C58.8146 12.1486 59.5181 11.9629 59.9823 11.5916C60.4513 11.2203 60.681 10.678 60.681 9.96954C60.681 9.2611 60.4855 8.72366 60.0947 8.38165C59.7038 8.03965 59.0882 7.86865 58.2527 7.86865H57.0068C56.9287 7.86865 56.8603 7.93216 56.8603 8.01522V12.0069L56.8652 12.002ZM63.7688 9.86205C63.7688 11.4157 63.2851 12.603 62.3128 13.4238C61.3406 14.2446 59.9628 14.655 58.1746 14.655H57.0068C56.9287 14.655 56.8603 14.7185 56.8603 14.8016V19.6434C56.8603 19.7216 56.7968 19.79 56.7137 19.79H53.9434C53.8653 19.79 53.7969 19.7265 53.7969 19.6434V5.50392C53.7969 5.42574 53.8604 5.36223 53.9434 5.36223H58.4042C60.1533 5.36223 61.4822 5.73844 62.3959 6.49085C63.3046 7.24326 63.7639 8.367 63.7639 9.86205" fill="#0052CC" style="fill:#0052CC;fill:color(display-p3 0.0000 0.3216 0.8000);fill-opacity:1;"/>
<path d="M66.4922 19.6385V5.50392C66.4922 5.42574 66.5557 5.36223 66.6388 5.36223H69.409C69.4872 5.36223 69.5556 5.42574 69.5556 5.50392V19.6385C69.5556 19.7167 69.4921 19.7851 69.409 19.7851H66.6388C66.5606 19.7851 66.4922 19.7216 66.4922 19.6385Z" fill="#0052CC" style="fill:#0052CC;fill:color(display-p3 0.0000 0.3216 0.8000);fill-opacity:1;"/>
<path d="M73.1797 19.6385V5.50392C73.1797 5.42574 73.2432 5.36223 73.3263 5.36223H76.0965C76.1747 5.36223 76.2431 5.42574 76.2431 5.50392V17.1126C76.2431 17.1908 76.3066 17.2592 76.3897 17.2592H81.9497C82.0279 17.2592 82.0963 17.3227 82.0963 17.4057V19.6434C82.0963 19.7216 82.0328 19.79 81.9497 19.79H73.3312C73.253 19.79 73.1846 19.7265 73.1846 19.6434" fill="#27344A" style="fill:#27344A;fill:color(display-p3 0.1529 0.2039 0.2902);fill-opacity:1;"/>
<path d="M90.5792 16.6684V14.6457C90.5792 14.5138 90.4473 14.3819 90.3154 14.4112C89.9831 14.4454 89.6167 14.5089 89.2209 14.5431C88.7226 14.6115 88.361 14.7092 88.1265 14.7727C87.8285 14.8705 87.594 15.0708 87.4279 15.2711C87.2617 15.5056 87.1933 15.7694 87.1933 16.1359C87.1933 16.3704 87.2275 16.5658 87.2617 16.6977C87.2959 16.8297 87.3936 16.9958 87.5256 17.1277C87.6575 17.2596 87.8236 17.3622 87.9897 17.4257C88.1558 17.4941 88.4539 17.5234 88.8496 17.5234C89.1477 17.5234 89.4799 17.455 89.7779 17.2938C90.076 17.1619 90.3105 16.9958 90.5401 16.7613C90.5743 16.7955 90.5743 16.7271 90.5743 16.6635M90.5792 19.0869C90.5792 18.8866 90.3447 18.7889 90.1834 18.9208C90.115 18.9892 90.0515 19.0527 89.9489 19.1211C89.7193 19.3214 89.4848 19.4875 89.2503 19.6195C88.9522 19.7856 88.62 19.9175 88.322 19.9859C87.9897 20.0543 87.6233 20.1178 87.2617 20.1178C86.3334 20.1178 85.5712 19.7856 84.9752 19.1211C84.3449 18.4566 84.0469 17.5967 84.0469 16.5365C84.0469 15.7059 84.213 15.0121 84.511 14.4796C84.8091 13.947 85.2732 13.5171 85.84 13.2191C86.4018 12.921 87.1347 12.6865 87.9653 12.5546C88.7959 12.4227 89.69 12.3201 90.5841 12.2565V12.1881C90.5841 11.5579 90.3496 11.1279 89.9196 10.8934C89.4897 10.6638 88.8594 10.527 87.9946 10.527C87.4963 10.527 86.9344 10.6247 86.3676 10.8592C85.8058 11.0595 85.3709 11.2256 85.1413 11.3576H84.8433V8.77297C84.8433 8.67525 84.9117 8.57265 85.0094 8.53845C85.3416 8.44074 85.8058 8.33813 86.436 8.24042C87.164 8.1085 87.8969 8.0401 88.6249 8.0401C90.3838 8.0401 91.6443 8.37233 92.4065 9.0026C93.1687 9.63287 93.5693 10.6589 93.5693 12.022V19.5511C93.5693 19.683 93.4716 19.7856 93.3348 19.7856H90.7453C90.6134 19.7856 90.5108 19.6879 90.5108 19.5511V19.0869H90.5792Z" fill="#27344A" style="fill:#27344A;fill:color(display-p3 0.1529 0.2039 0.2902);fill-opacity:1;"/>
<path d="M101.023 15.0069L102.948 8.53811C102.983 8.4404 103.08 8.37199 103.178 8.37199H105.831C105.997 8.37199 106.095 8.53811 106.061 8.67003L100.887 23.7965C100.852 23.8942 100.755 23.9626 100.652 23.9626H97.7988C97.6327 23.9626 97.535 23.7965 97.5692 23.6646L98.9616 19.7852C98.9958 19.751 98.9958 19.6875 98.9616 19.6191L95.3461 8.67491C95.2777 8.5088 95.4145 8.37688 95.5807 8.37688H98.3314C98.4291 8.37688 98.5317 8.44528 98.5659 8.543L100.589 15.0118C100.657 15.2121 100.955 15.2121 101.019 15.0118" fill="#27344A" style="fill:#27344A;fill:color(display-p3 0.1529 0.2039 0.2902);fill-opacity:1;"/>
<path d="M114.036 12.5888C114.168 12.5888 114.271 12.4911 114.271 12.3543C114.237 11.724 114.071 11.2256 113.807 10.8641C113.509 10.4683 113.045 10.3022 112.38 10.3022C111.784 10.3022 111.286 10.5025 110.919 10.8641C110.587 11.1963 110.357 11.6947 110.289 12.3543C110.289 12.4862 110.387 12.6181 110.524 12.6181L114.041 12.5839L114.036 12.5888ZM117.119 14.7434H110.553C110.421 14.7434 110.289 14.8753 110.318 15.0072C110.416 15.7694 110.685 16.3655 111.149 16.8003C111.681 17.2645 112.444 17.499 113.47 17.499C114.134 17.499 114.764 17.3671 115.36 17.0691C115.957 16.8052 116.455 16.5072 116.821 16.1749H117.154V18.9599C117.154 19.0576 117.085 19.126 117.022 19.1944C116.391 19.4924 115.761 19.7269 115.199 19.8588C114.569 19.9908 113.905 20.0934 113.142 20.0934C111.217 20.0934 109.727 19.5608 108.696 18.5348C107.67 17.5039 107.172 16.0479 107.172 14.1229C107.172 12.1979 107.67 10.7419 108.633 9.64752C109.595 8.5531 110.953 7.98634 112.644 7.98634C114.203 7.98634 115.395 8.45049 116.162 9.3788C116.958 10.3071 117.354 11.6702 117.354 13.4242V14.4845C117.354 14.6506 117.256 14.7483 117.119 14.7483" fill="#27344A" style="fill:#27344A;fill:color(display-p3 0.1529 0.2039 0.2902);fill-opacity:1;"/>
<path d="M126.498 11.8556H126.235C126.103 11.7872 125.902 11.7579 125.604 11.7237C125.306 11.6895 125.072 11.6895 124.876 11.6895C124.446 11.6895 124.046 11.7237 123.713 11.7872C123.415 11.8556 123.117 11.9533 122.785 12.0852C122.687 12.1194 122.619 12.2171 122.619 12.3148V19.58C122.619 19.7119 122.521 19.8097 122.385 19.8097H119.766C119.634 19.8097 119.531 19.7119 119.531 19.58V8.64071C119.531 8.5088 119.629 8.40619 119.766 8.40619H122.385C122.516 8.40619 122.619 8.50391 122.619 8.64071V9.53481C122.619 9.73513 122.854 9.83285 123.015 9.70093C123.513 9.23678 123.977 8.90455 124.373 8.70423C124.871 8.46971 125.336 8.37199 125.766 8.37199H126.132C126.264 8.37199 126.396 8.40619 126.498 8.40619V11.8556Z" fill="#27344A" style="fill:#27344A;fill:color(display-p3 0.1529 0.2039 0.2902);fill-opacity:1;"/>
<line x1="140" y1="0.41008" x2="140" y2="25.4101" stroke="#E4EBEF" style="stroke:#E4EBEF;stroke:color(display-p3 0.8941 0.9216 0.9373);stroke-opacity:1;"/>
<path d="M26.3029 17.8948L24.974 19.6195C24.4121 20.3474 23.5473 20.7823 22.6532 20.7823H9.11955L4.1116 8.87557C3.74517 8.01079 3.87708 7.01897 4.44384 6.2861L5.53826 4.82524L11.0104 17.8948H26.3029Z" fill="#0052CC" style="fill:#0052CC;fill:color(display-p3 0.0000 0.3216 0.8000);fill-opacity:1;"/>
<path d="M26.4708 15.9405H12.4388L7.46501 4.06307C6.93245 2.80253 7.86076 1.41008 9.2239 1.41008H23.2559L28.2297 13.2826C28.7622 14.5431 27.8339 15.9356 26.4708 15.9356" fill="#0052CC" style="fill:#0052CC;fill:color(display-p3 0.0000 0.3216 0.8000);fill-opacity:1;"/>
<path d="M22.5833 22.7024L21.2543 24.4271C20.6925 25.1551 19.8277 25.5899 18.9336 25.5899H7.16367C6.30377 25.5899 5.5367 25.0916 5.20446 24.2952L0.72418 13.5513C0.32843 12.5888 0.460347 11.4602 1.09062 10.6345L2.08732 9.33974L7.69134 22.7073H22.5833V22.7024Z" fill="#0052CC" style="fill:#0052CC;fill:color(display-p3 0.0000 0.3216 0.8000);fill-opacity:1;"/>
</svg>
