<svg width="62" height="42" viewBox="0 0 62 42" fill="none" xmlns="http://www.w3.org/2000/svg">
<g clip-path="url(#clip0_265_3114)">
<path d="M58.125 1.3125C58.125 2.03737 58.7033 2.625 59.4167 2.625H60.7083C61.4217 2.625 62 2.03737 62 1.3125C62 0.587627 61.4217 0 60.7083 0H59.4167C58.7033 0 58.125 0.587627 58.125 1.3125Z" fill="#27344A" style="fill:#27344A;fill:color(display-p3 0.1529 0.2039 0.2902);fill-opacity:1;"/>
<path d="M20.6667 42H26.9414L25.1147 40.1438C24.6302 39.6516 23.9731 39.375 23.288 39.375H20.6667C10.6795 39.375 2.58333 31.1482 2.58333 21C2.58333 10.8517 10.6795 2.62501 20.6667 2.625H41.3333C51.3205 2.625 59.4167 10.8517 59.4167 21C59.4167 31.1482 51.3205 39.375 41.3333 39.375H33.6023C32.5746 39.375 31.589 38.9601 30.8623 38.2218L28.7222 36.0471C27.5111 34.8164 25.8683 34.125 24.1554 34.125H20.6667C13.5329 34.125 7.75 28.2488 7.75 21C7.75 13.7512 13.5329 7.875 20.6667 7.875H41.3333C48.4671 7.875 54.25 13.7512 54.25 21C54.25 28.2488 48.4671 34.125 41.3333 34.125H36.3693C35.3415 34.125 34.356 33.7101 33.6292 32.9718L31.4891 30.7971C30.2779 29.5664 28.6352 28.875 26.9224 28.875H20.6667C16.3865 28.875 12.9167 25.3492 12.9167 21C12.9167 16.6508 16.3865 13.125 20.6667 13.125H41.3333C45.6135 13.125 49.0833 16.6508 49.0833 21C49.0833 25.2962 45.6976 28.7889 41.4896 28.8734L41.4887 28.875H39.5985C38.5707 28.875 37.5851 28.4601 36.8584 27.7218L34.7182 25.5471C33.7245 24.5372 32.4402 23.8905 31.0649 23.6909L31 23.625H20.6667C19.2399 23.625 18.0833 22.4497 18.0833 21C18.0833 19.5503 19.2399 18.375 20.6667 18.375H41.3333C42.7601 18.375 43.9167 19.5503 43.9167 21C43.9167 22.4497 42.7601 23.625 41.3333 23.625H36.1667L37.9934 25.4812C38.4778 25.9734 39.1349 26.25 39.82 26.25H41.3333C44.1868 26.25 46.5 23.8995 46.5 21C46.5 18.1005 44.1868 15.75 41.3333 15.75H20.6667C17.8132 15.75 15.5 18.1005 15.5 21C15.5 23.8995 17.8132 26.25 20.6667 26.25H30.1515C31.1793 26.25 32.1649 26.6649 32.8916 27.4032L35.0318 29.5779C36.2429 30.8086 37.8856 31.5 39.5985 31.5H41.9792V31.4798C47.3853 31.1411 51.6667 26.5785 51.6667 21C51.6667 15.2011 47.0402 10.5 41.3333 10.5H20.6667C14.9598 10.5 10.3333 15.2011 10.3333 21C10.3333 26.799 14.9598 31.5 20.6667 31.5H26.9224C27.9501 31.5 28.9357 31.9149 29.6625 32.6532L31.8026 34.8279C33.0138 36.0586 34.6564 36.75 36.3693 36.75H41.3333C49.8938 36.75 56.8333 29.6985 56.8333 21C56.8333 12.3015 49.8938 5.25 41.3333 5.25H20.6667C12.1062 5.25 5.16667 12.3015 5.16667 21C5.16667 29.6985 12.1062 36.75 20.6667 36.75H24.1554C25.1832 36.75 26.1688 37.1649 26.8955 37.9032L29.0356 40.0779C30.2468 41.3086 31.8895 42 33.6023 42H41.3333C52.7472 42 62 32.598 62 21C62 9.40201 52.7472 -1.01393e-06 41.3333 0L20.6667 4.33927e-06C9.25278 5.3532e-06 -9.97833e-07 9.40203 0 21C9.97833e-07 32.598 9.25279 42 20.6667 42Z" fill="#27344A" style="fill:#27344A;fill:color(display-p3 0.1529 0.2039 0.2902);fill-opacity:1;"/>
</g>
<defs>
<clipPath id="clip0_265_3114">
<rect width="62" height="42" fill="white" style="fill:white;fill-opacity:1;"/>
</clipPath>
</defs>
</svg>
