<svg width="48" height="50" viewBox="0 0 48 50" fill="none" xmlns="http://www.w3.org/2000/svg">
<g clip-path="url(#clip0_265_3110)">
<path d="M24.0025 0C37.2577 0 48.0025 11.1925 48.0025 25V42.5C48.0025 44.4891 47.2439 46.3968 45.8936 47.8033C44.5434 49.2098 42.712 50 40.8025 50H25.2025V39.0325C25.2025 36.53 25.3489 33.9375 26.6089 31.8075C27.5109 30.281 28.7176 28.9745 30.1471 27.9766C31.5766 26.9787 33.1954 26.3127 34.8937 26.0238L35.3533 25.9463C35.5427 25.8788 35.7072 25.7513 35.8237 25.5816C35.9401 25.4119 36.0028 25.2086 36.0028 25C36.0028 24.7914 35.9401 24.5881 35.8237 24.4184C35.7072 24.2487 35.5427 24.1212 35.3533 24.0537L34.8937 23.9762C32.4123 23.554 30.1209 22.3305 28.343 20.4786C26.5651 18.6267 25.3906 16.2398 24.9853 13.655L24.9109 13.1763C24.8461 12.9789 24.7237 12.8075 24.5608 12.6862C24.3979 12.5649 24.2027 12.4997 24.0025 12.4997C23.8022 12.4997 23.607 12.5649 23.4441 12.6862C23.2812 12.8075 23.1588 12.9789 23.0941 13.1763L23.0196 13.655C22.7424 15.4241 22.103 17.1104 21.145 18.5994C20.187 20.0884 18.9327 21.3454 17.4673 22.285C15.4225 23.5975 12.9337 23.75 10.5312 23.75H0.03125C0.65885 10.5237 11.1504 0 24.0025 0Z" fill="#27344A" style="fill:#27344A;fill:color(display-p3 0.1529 0.2039 0.2902);fill-opacity:1;"/>
<path d="M0 26.25H10.5288C12.9312 26.25 15.42 26.4025 17.4648 27.715C19.0632 28.741 20.4087 30.1425 21.3936 31.8075C22.6536 33.9375 22.8 36.53 22.8 39.0325V50H7.2C5.29044 50 3.45909 49.2098 2.10883 47.8033C0.758569 46.3968 0 44.4891 0 42.5L0 26.25ZM48 2.5C48 3.16304 47.7471 3.79893 47.2971 4.26777C46.847 4.73661 46.2365 5 45.6 5C44.9635 5 44.353 4.73661 43.9029 4.26777C43.4529 3.79893 43.2 3.16304 43.2 2.5C43.2 1.83696 43.4529 1.20107 43.9029 0.732233C44.353 0.263392 44.9635 0 45.6 0C46.2365 0 46.847 0.263392 47.2971 0.732233C47.7471 1.20107 48 1.83696 48 2.5Z" fill="#27344A" style="fill:#27344A;fill:color(display-p3 0.1529 0.2039 0.2902);fill-opacity:1;"/>
</g>
<defs>
<clipPath id="clip0_265_3110">
<rect width="48" height="50" fill="white" style="fill:white;fill-opacity:1;"/>
</clipPath>
</defs>
</svg>
