<svg width="50" height="50" viewBox="0 0 50 50" fill="none" xmlns="http://www.w3.org/2000/svg">
<g clip-path="url(#clip0_265_3165)">
<path d="M49.9308 26.875H41C33.1989 26.875 26.875 33.199 26.875 41V49.9308C39.1874 49.0178 49.0178 39.1874 49.9308 26.875Z" fill="#27344A" style="fill:#27344A;fill:color(display-p3 0.1529 0.2039 0.2902);fill-opacity:1;"/>
<path d="M23.1261 49.9308V41C23.1261 33.199 16.8021 26.875 9.00106 26.875H0.0703125C0.98323 39.1874 10.8137 49.0178 23.1261 49.9308Z" fill="#27344A" style="fill:#27344A;fill:color(display-p3 0.1529 0.2039 0.2902);fill-opacity:1;"/>
<path d="M49.9308 23.1241C49.0178 10.8117 39.1874 0.981277 26.875 0.0683594V8.9991C26.875 16.8001 33.1989 23.1241 41 23.1241H49.9308Z" fill="#27344A" style="fill:#27344A;fill:color(display-p3 0.1529 0.2039 0.2902);fill-opacity:1;"/>
<path d="M23.1261 0.0683594C10.8137 0.981277 0.98323 10.8117 0.0703125 23.1241H9.00106C16.8021 23.1241 23.1261 16.8001 23.1261 8.9991V0.0683594Z" fill="#27344A" style="fill:#27344A;fill:color(display-p3 0.1529 0.2039 0.2902);fill-opacity:1;"/>
<path d="M16.9766 25.0001C20.4422 23.2685 23.2666 20.4441 24.9981 16.9785C26.7297 20.4441 29.5539 23.2685 33.0197 25.0001C29.5539 26.7316 26.7297 29.556 24.9981 33.0216C23.2666 29.556 20.4422 26.7316 16.9766 25.0001Z" fill="#27344A" style="fill:#27344A;fill:color(display-p3 0.1529 0.2039 0.2902);fill-opacity:1;"/>
</g>
<defs>
<clipPath id="clip0_265_3165">
<rect width="50" height="50" fill="white" style="fill:white;fill-opacity:1;"/>
</clipPath>
</defs>
</svg>
