<svg width="82" height="22" viewBox="0 0 82 22" fill="none" xmlns="http://www.w3.org/2000/svg">
<g clip-path="url(#clip0_265_3072)">
<path d="M19.5262 15.0748L19.5148 15.0386L26.6896 8.43019V5.24609H15.1789V8.43019H22.0543L22.0656 8.46069L14.9609 15.0748V18.2589H26.8052V15.0748H19.5262Z" fill="#27344A" style="fill:#27344A;fill:color(display-p3 0.1529 0.2039 0.2902);fill-opacity:1;"/>
<path d="M33.8711 4.94336C32.5434 4.94336 31.4613 5.14479 30.625 5.54776C29.8458 5.89889 29.1896 6.47749 28.7412 7.20843C28.3124 7.94416 28.043 8.76289 27.951 9.61079L31.4436 10.1046C31.57 9.35593 31.8227 8.82526 32.2017 8.51256C32.6325 8.18553 33.1635 8.02029 33.7026 8.04546C34.4115 8.04546 34.9257 8.23609 35.2451 8.61743C35.5618 8.99876 35.7228 9.52689 35.7228 10.2228V10.5698H32.3647C30.6553 10.5698 29.4273 10.9512 28.6806 11.7138C27.9339 12.4765 27.5612 13.4832 27.5625 14.7339C27.5625 16.0152 27.9352 16.9685 28.6806 17.5939C29.426 18.2193 30.3635 18.53 31.4929 18.5262C32.894 18.5262 33.9718 18.0413 34.7259 17.0715C35.1715 16.4755 35.4896 15.7932 35.6602 15.0676H35.7871L36.2685 18.2517H39.4332V10.1885C39.4332 8.52209 38.9968 7.23133 38.1238 6.31613C37.2508 5.40093 35.8331 4.94336 33.8711 4.94336ZM34.978 14.8826C34.4758 15.304 33.8181 15.5137 32.9995 15.5137C32.3248 15.5137 31.8561 15.3949 31.5934 15.1572C31.4653 15.0447 31.3635 14.9053 31.295 14.7488C31.2266 14.5923 31.1932 14.4225 31.1973 14.2516C31.1898 14.0903 31.215 13.9293 31.2714 13.7782C31.3277 13.6271 31.4141 13.4891 31.5251 13.3726C31.6452 13.2593 31.7869 13.1716 31.9416 13.1149C32.0964 13.0582 32.2609 13.0337 32.4253 13.0427H35.7284V13.262C35.7351 13.5719 35.6708 13.8793 35.5409 14.1603C35.4107 14.4413 35.2182 14.6884 34.978 14.8826Z" fill="#27344A" style="fill:#27344A;fill:color(display-p3 0.1529 0.2039 0.2902);fill-opacity:1;"/>
<path d="M58.567 5.24609H54.8281V18.2608H58.567V5.24609Z" fill="#27344A" style="fill:#27344A;fill:color(display-p3 0.1529 0.2039 0.2902);fill-opacity:1;"/>
<path d="M80.6459 5.24609C79.5897 5.24609 78.7571 5.62106 78.1482 6.37103C77.7112 6.90996 77.3789 7.70629 77.1516 8.76003H77.0416L76.5526 5.24609H73.3594V18.2589H77.0986V11.5857C77.0986 10.7442 77.2944 10.0991 77.686 9.65043C78.0776 9.20173 78.8002 8.97739 79.8538 8.97739H81.2731V5.24609H80.6459Z" fill="#27344A" style="fill:#27344A;fill:color(display-p3 0.1529 0.2039 0.2902);fill-opacity:1;"/>
<path d="M69.6472 5.67236C68.7746 5.14993 67.6733 4.88936 66.3444 4.89063C64.2521 4.89063 62.6148 5.48996 61.4323 6.6886C60.2495 7.88723 59.6585 9.53966 59.6585 11.6459C59.6283 12.9192 59.9046 14.181 60.4639 15.3238C60.9758 16.3421 61.7729 17.1872 62.7569 17.7547C63.7472 18.3305 64.9254 18.6191 66.2914 18.6203C67.4725 18.6203 68.4591 18.4373 69.2513 18.0712C69.9961 17.7425 70.6445 17.2272 71.1352 16.5745C71.602 15.9338 71.9489 15.2128 72.1583 14.4467L68.9369 13.5391C68.8011 14.0373 68.54 14.4917 68.1789 14.8585C67.8147 15.2246 67.2051 15.4077 66.35 15.4077C65.3329 15.4077 64.5748 15.1147 64.0759 14.5287C63.7137 14.1054 63.4865 13.501 63.3861 12.7174H72.2076C72.2437 12.3513 72.2626 12.0443 72.2626 11.7965V10.9862C72.2838 9.89756 72.0605 8.8182 71.6089 7.82876C71.1862 6.92743 70.5024 6.17573 69.6472 5.67236ZM66.2364 7.99273C67.7525 7.99273 68.6119 8.7433 68.8153 10.2445H63.4523C63.5375 9.7436 63.7439 9.2715 64.053 8.8698C64.5447 8.28383 65.2722 7.99146 66.2364 7.99273Z" fill="#27344A" style="fill:#27344A;fill:color(display-p3 0.1529 0.2039 0.2902);fill-opacity:1;"/>
<path d="M56.7407 0.00122085C56.4595 -0.00840376 56.1792 0.038958 55.9164 0.140495C55.6537 0.242031 55.4142 0.395667 55.2114 0.592273C55.012 0.790767 54.8552 1.02886 54.7519 1.29144C54.6485 1.55401 54.6005 1.83534 54.6107 2.11758C54.6008 2.40166 54.6488 2.68478 54.7525 2.94927C54.8559 3.21376 55.0126 3.45397 55.2124 3.65487C55.4122 3.85577 55.6511 4.01307 55.9141 4.11697C56.1772 4.22087 56.4585 4.26913 56.7407 4.25873C57.0214 4.2694 57.301 4.22117 57.5621 4.11713C57.8231 4.01307 58.0597 3.85547 58.2568 3.65433C58.4526 3.45113 58.605 3.21026 58.7058 2.94616C58.8065 2.68207 58.8529 2.40022 58.8426 2.11758C58.8555 1.83662 58.8101 1.55602 58.7091 1.29372C58.608 1.03141 58.454 0.79317 58.2565 0.594193C58.0587 0.395217 57.8222 0.239881 57.5614 0.138109C57.301 0.036337 57.022 -0.00963153 56.7427 0.00312935L56.7407 0.00122085Z" fill="#27344A" style="fill:#27344A;fill:color(display-p3 0.1529 0.2039 0.2902);fill-opacity:1;"/>
<path d="M49.0224 4.89062C47.7488 4.89062 46.7254 5.29292 45.9524 6.09752C45.3799 6.69366 44.9598 7.58342 44.6921 8.76682H44.5728L44.0838 5.25289H40.8906V22.0008H44.6295V15.1026H44.766C44.88 15.5625 45.04 16.0097 45.2434 16.4372C45.5598 17.1337 46.0787 17.7173 46.7313 18.1113C47.4079 18.4828 48.1702 18.6676 48.9409 18.647C50.5063 18.647 51.6981 18.0337 52.5167 16.8071C53.3354 15.5805 53.7449 13.869 53.7449 11.6726C53.7449 9.55109 53.3487 7.89042 52.5568 6.69049C51.7647 5.49059 50.5865 4.89062 49.0224 4.89062ZM49.4014 14.3209C48.9654 14.9564 48.2832 15.2742 47.3545 15.2742C46.9719 15.292 46.5902 15.2177 46.2417 15.0576C45.8928 14.8974 45.587 14.656 45.3498 14.3533C44.8657 13.7419 44.6245 12.9049 44.6259 11.8422V11.5944C44.6259 10.5152 44.867 9.68899 45.3498 9.11573C45.8322 8.54246 46.5008 8.25902 47.3545 8.26536C48.2998 8.26536 48.9863 8.56726 49.4146 9.17103C49.843 9.77479 50.0571 10.6169 50.0571 11.6973C50.0597 12.8146 49.8424 13.6891 49.405 14.3209H49.4014Z" fill="#27344A" style="fill:#27344A;fill:color(display-p3 0.1529 0.2039 0.2902);fill-opacity:1;"/>
<path d="M13.5139 15.0742H0.578125V18.2621H13.5139V15.0742Z" fill="#27344A" style="fill:#27344A;fill:color(display-p3 0.1529 0.2039 0.2902);fill-opacity:1;"/>
</g>
<defs>
<clipPath id="clip0_265_3072">
<rect width="82" height="22" fill="white" style="fill:white;fill-opacity:1;"/>
</clipPath>
</defs>
</svg>
