<svg width="50" height="44" viewBox="0 0 50 44" fill="none" xmlns="http://www.w3.org/2000/svg">
<g clip-path="url(#clip0_265_3172)">
<path fill-rule="evenodd" clip-rule="evenodd" d="M31.25 37.7137C32.8915 37.7137 34.517 37.3885 36.0335 36.7568C37.5501 36.125 38.9281 35.1991 40.0889 34.0317C41.2496 32.8643 42.1702 31.4784 42.7985 29.9531C43.4266 28.428 43.75 26.7932 43.75 25.1423C43.75 20.1411 41.7745 15.3446 38.2583 11.8083C34.742 8.27188 29.9727 6.28516 25 6.28516C20.0273 6.28516 15.258 8.27188 11.7418 11.8083C8.22544 15.3446 6.25 20.1411 6.25 25.1423C6.25 26.7932 6.57332 28.428 7.2015 29.9531C7.82969 31.4784 8.75044 32.8643 9.91116 34.0317C11.0719 35.1991 12.4499 36.125 13.9665 36.7568C15.483 37.3885 17.1085 37.7137 18.75 37.7137H31.25ZM25 11.3137C21.3533 11.3137 17.8559 12.7706 15.2773 15.364C12.6986 17.9574 11.25 21.4747 11.25 25.1423C11.25 26.1328 11.444 27.1136 11.8209 28.0288C12.1978 28.944 12.7502 29.7755 13.4467 30.4759C14.1431 31.1763 14.9699 31.7319 15.8799 32.111C16.7899 32.49 17.7651 32.6852 18.75 32.6852H31.25C32.2349 32.6852 33.2101 32.49 34.1201 32.111C35.0301 31.7319 35.8569 31.1763 36.5532 30.4759C37.2498 29.7755 37.8021 28.944 38.1791 28.0288C38.556 27.1136 38.75 26.1328 38.75 25.1423C38.75 21.4747 37.3014 17.9574 34.7227 15.364C32.1441 12.7706 28.6467 11.3137 25 11.3137Z" fill="#27344A" style="fill:#27344A;fill:color(display-p3 0.1529 0.2039 0.2902);fill-opacity:1;"/>
<path fill-rule="evenodd" clip-rule="evenodd" d="M16.25 44C14.116 44 12.003 43.5122 10.0314 42.5646C8.0599 41.617 6.2685 40.2279 4.75951 38.4769C3.25059 36.7258 2.05361 34.6471 1.23696 32.3592C0.420321 30.0714 0 27.6192 0 25.1429C0 18.4746 2.63392 12.0794 7.32234 7.36417C12.0107 2.64898 18.3696 0 25 0C31.6304 0 37.9893 2.64898 42.6776 7.36417C47.3661 12.0794 50 18.4746 50 25.1429C50 27.6192 49.5796 30.0714 48.763 32.3592C47.9464 34.6471 46.7494 36.7258 45.2405 38.4769C43.7315 40.2279 41.9401 41.617 39.9686 42.5646C37.997 43.5122 35.884 44 33.75 44H16.25ZM10.8579 10.9199C14.6086 7.14775 19.6956 5.02857 25 5.02857C30.3044 5.02857 35.3914 7.14775 39.1421 10.9199C42.8929 14.6921 45 19.8082 45 25.1429C45 27.0511 44.6755 28.9277 44.0571 30.6602C43.4388 32.3925 42.547 33.9245 41.462 35.1835C40.3783 36.4412 39.1306 37.394 37.8125 38.0276C36.4976 38.6597 35.1196 38.9714 33.75 38.9714H16.25C14.8804 38.9714 13.5024 38.6597 12.1875 38.0276C10.8694 37.394 9.62175 36.4412 8.53796 35.1835C7.45302 33.9245 6.56129 32.3925 5.94291 30.6602C5.32451 28.9277 5 27.0511 5 25.1429C5 19.8082 7.10714 14.6921 10.8579 10.9199Z" fill="#27344A" style="fill:#27344A;fill:color(display-p3 0.1529 0.2039 0.2902);fill-opacity:1;"/>
<path d="M31.25 31.4294H24.9945C24.5745 31.429 24.1576 31.386 23.75 31.3024C22.96 31.1403 22.2046 30.825 21.5278 30.37C20.4999 29.6793 19.6988 28.6978 19.2257 27.5491C19.0724 27.1766 18.9556 26.7921 18.8762 26.4008C18.7107 25.5856 18.7071 24.7413 18.8701 23.9174C19.1112 22.698 19.7065 21.5781 20.5806 20.6991C21.4546 19.8199 22.5682 19.2213 23.7806 18.9788C23.8186 18.9711 23.8565 18.964 23.8945 18.957C24.2609 18.8909 24.6309 18.858 25 18.858C25.8169 18.858 26.6298 19.019 27.3918 19.3364C28.5338 19.8122 29.5099 20.6179 30.1966 21.6515C30.8835 22.6852 31.25 23.9005 31.25 25.1437H26.25C26.25 24.895 26.1767 24.652 26.0394 24.4452C25.902 24.2386 25.7067 24.0774 25.4784 23.9822C25.25 23.8871 24.9986 23.8622 24.7561 23.9107C24.5136 23.9592 24.2909 24.0789 24.1161 24.2548C23.9412 24.4305 23.8222 24.6545 23.774 24.8984C23.7257 25.1423 23.7505 25.3951 23.8451 25.6248C23.9397 25.8545 24.1 26.0508 24.3055 26.189C24.5111 26.3272 24.7528 26.4008 25 26.4008H31.25C31.4141 26.4008 31.5767 26.3683 31.7284 26.3052C31.88 26.2419 32.0177 26.1494 32.1339 26.0326C32.25 25.9158 32.342 25.7773 32.4049 25.6248C32.4676 25.4723 32.5 25.3088 32.5 25.1437C32.5 23.1432 31.7099 21.2247 30.3032 19.8101C28.8967 18.3955 26.9891 17.6008 25 17.6008C24.7843 17.6008 24.5695 17.6101 24.3563 17.6286C23.8321 17.674 23.3169 17.7746 22.8187 17.9269C22.3286 18.0767 21.855 18.2767 21.4054 18.5236C20.8904 18.8064 20.4069 19.1509 19.9662 19.5522C19.8745 19.6356 19.7846 19.7216 19.6967 19.8101C19.0814 20.4289 18.584 21.1443 18.2191 21.9208C18.0368 22.309 17.8874 22.7124 17.7731 23.1267C17.6424 23.6004 17.5574 24.0882 17.5207 24.5835C17.507 24.7693 17.5 24.9561 17.5 25.1437C17.5 26.1294 17.6921 27.1106 18.0709 28.0302C18.6386 29.4086 19.5999 30.5865 20.8332 31.4153C20.8402 31.4201 20.8472 31.4248 20.8542 31.4294H18.75C17.9292 31.4294 17.1165 31.2669 16.3583 30.9509C15.6 30.635 14.911 30.172 14.3306 29.5883C13.7503 29.0046 13.2899 28.3117 12.9757 27.5491C12.6616 26.7865 12.5 25.9691 12.5 25.1437C12.5 21.8095 13.817 18.612 16.1611 16.2543C18.5054 13.8968 21.6847 12.5723 25 12.5723C28.3153 12.5723 31.4946 13.8968 33.8389 16.2543C36.183 18.612 37.5 21.8095 37.5 25.1437C37.5 25.9691 37.3384 26.7865 37.0243 27.5491C36.7101 28.3117 36.2498 29.0046 35.6694 29.5883C35.089 30.172 34.4 30.635 33.6418 30.9509C32.8835 31.2669 32.0707 31.4294 31.25 31.4294Z" fill="#27344A" style="fill:#27344A;fill:color(display-p3 0.1529 0.2039 0.2902);fill-opacity:1;"/>
</g>
<defs>
<clipPath id="clip0_265_3172">
<rect width="50" height="44" fill="white" style="fill:white;fill-opacity:1;"/>
</clipPath>
</defs>
</svg>
