<svg width="40" height="41" viewBox="0 0 40 41" fill="none" xmlns="http://www.w3.org/2000/svg">
<path fill-rule="evenodd" clip-rule="evenodd" d="M13.7146 0.015625C11.4582 0.015625 9.2943 0.911962 7.69881 2.50745L0 10.2062V13.7302C0 16.2199 1.06944 18.4598 2.77401 20.0156C1.06944 21.5714 0 23.8113 0 26.301V29.825L7.69881 37.5238C9.2943 39.1193 11.4582 40.0156 13.7146 40.0156C16.2043 40.0156 18.4442 38.9462 20 37.2416C21.5558 38.9462 23.7957 40.0156 26.2854 40.0156C28.5418 40.0156 30.7057 39.1193 32.3012 37.5238L40 29.825V26.301C40 23.8113 38.9306 21.5714 37.226 20.0156C38.9306 18.4598 40 16.2199 40 13.7302V10.2062L32.3012 2.50745C30.7057 0.911962 28.5418 0.015625 26.2854 0.015625C23.7957 0.015625 21.5558 1.08506 20 2.78963C18.4442 1.08506 16.2043 0.015625 13.7146 0.015625ZM25.7588 20.0156C25.6629 19.9281 25.5688 19.8382 25.4766 19.746L20 14.2694L14.5234 19.746C14.4312 19.8382 14.3371 19.9281 14.2412 20.0156C14.3371 20.1031 14.4312 20.193 14.5234 20.2852L20 25.7618L25.4766 20.2852C25.5688 20.193 25.6629 20.1031 25.7588 20.0156ZM22.2222 29.825V31.508C22.2222 33.752 24.0414 35.5712 26.2854 35.5712C27.363 35.5712 28.3965 35.1431 29.1585 34.3811L35.5556 27.984V26.301C35.5556 24.057 33.7364 22.2378 31.4924 22.2378C30.4148 22.2378 29.3813 22.6659 28.6193 23.4279L22.2222 29.825ZM17.7778 29.825L11.3807 23.4279C10.6187 22.6659 9.58524 22.2378 8.50762 22.2378C6.26359 22.2378 4.44444 24.057 4.44444 26.301V27.984L10.8415 34.3811C11.6035 35.1431 12.637 35.5712 13.7146 35.5712C15.9586 35.5712 17.7778 33.752 17.7778 31.508V29.825ZM17.7778 8.52324V10.2062L11.3807 16.6033C10.6187 17.3653 9.58524 17.7934 8.50762 17.7934C6.26359 17.7934 4.44444 15.9742 4.44444 13.7302V12.0472L10.8415 5.65014C11.6035 4.88815 12.637 4.46007 13.7146 4.46007C15.9586 4.46007 17.7778 6.27921 17.7778 8.52324ZM28.6193 16.6033L22.2222 10.2062V8.52324C22.2222 6.27921 24.0414 4.46007 26.2854 4.46007C27.363 4.46007 28.3965 4.88815 29.1585 5.65014L35.5556 12.0472V13.7302C35.5556 15.9742 33.7364 17.7934 31.4924 17.7934C30.4148 17.7934 29.3813 17.3653 28.6193 16.6033Z" fill="#27344A" style="fill:#27344A;fill:color(display-p3 0.1529 0.2039 0.2902);fill-opacity:1;"/>
</svg>
