<svg width="52" height="52" viewBox="0 0 52 52" fill="none" xmlns="http://www.w3.org/2000/svg">
<g clip-path="url(#clip0_265_3106)">
<path d="M47.6003 21.3976C48.169 19.6897 48.3662 17.8802 48.1789 16.0901C47.9915 14.2999 47.424 12.5704 46.5141 11.0173C45.1654 8.66818 43.1052 6.80831 40.6309 5.70603C38.1566 4.60377 35.396 4.3161 32.7474 4.88454C31.5528 3.53827 30.0845 2.46269 28.4405 1.72982C26.7966 0.996959 25.0151 0.623692 23.2153 0.635016C20.5075 0.62848 17.8676 1.48202 15.6761 3.0726C13.4846 4.66317 11.8549 6.90858 11.0218 9.4851C9.25781 9.8462 7.59129 10.58 6.13381 11.6373C4.67634 12.6946 3.46156 14.051 2.57079 15.6158C1.21127 17.9585 0.630954 20.6723 0.91352 23.3661C1.19609 26.0598 2.32693 28.5941 4.14298 30.6036C3.57435 32.3115 3.37709 34.121 3.56441 35.9112C3.75172 37.7014 4.31928 39.4308 5.2291 40.984C6.57798 43.333 8.63819 45.1927 11.1125 46.295C13.5868 47.3972 16.3474 47.685 18.9958 47.1167C20.1904 48.463 21.6589 49.5385 23.3027 50.2714C24.9467 51.0042 26.7281 51.3775 28.5279 51.3662C31.2371 51.3733 33.8785 50.5194 36.0707 48.9278C38.2631 47.3362 39.8931 45.0892 40.7255 42.5111C42.4894 42.15 44.156 41.4163 45.6135 40.359C47.0709 39.3017 48.2856 37.9451 49.1765 36.3803C50.5343 34.0379 51.1133 31.3248 50.83 28.6321C50.5468 25.9394 49.4158 23.4062 47.6003 21.3976ZM28.532 48.0498C26.308 48.0529 24.154 47.2741 22.4462 45.8495C22.5232 45.8075 22.6583 45.7335 22.7463 45.6796L32.8475 39.8448C33.101 39.7006 33.3116 39.4914 33.4574 39.2388C33.6034 38.9862 33.6794 38.6993 33.6776 38.4077V24.1669L37.9472 26.6322C37.9695 26.6434 37.9888 26.6599 38.0033 26.6803C38.0178 26.7007 38.0269 26.7244 38.0301 26.7492V38.5426C38.0269 41.0616 37.0255 43.4766 35.2452 45.2585C33.4649 47.0406 31.0508 48.0443 28.532 48.0498ZM8.10546 39.3258C6.99152 37.401 6.59005 35.1459 6.97132 32.9549C7.04633 32.9999 7.17734 33.08 7.27136 33.134L17.3725 38.9687C17.6243 39.1158 17.9107 39.1934 18.2023 39.1934C18.4937 39.1934 18.7801 39.1158 19.0318 38.9687L31.3643 31.8478V36.7784C31.3657 36.8036 31.3609 36.8288 31.3503 36.8516C31.3396 36.8745 31.3235 36.8944 31.3033 36.9095L21.0921 42.8051C18.9079 44.0631 16.3139 44.4032 13.8793 43.7509C11.4446 43.0986 9.36815 41.5071 8.10546 39.3258ZM5.44814 17.274C6.55725 15.3467 8.30905 13.8712 10.3967 13.1055C10.3967 13.1925 10.3917 13.3466 10.3917 13.4535V25.123C10.39 25.4144 10.4658 25.701 10.6116 25.9536C10.7573 26.206 10.9676 26.415 11.2208 26.5592L23.5533 33.6791L19.2839 36.1443C19.2628 36.1582 19.2386 36.1666 19.2135 36.1689C19.1884 36.1712 19.163 36.1673 19.1398 36.1574L8.92756 30.2566C6.74723 28.9939 5.15655 26.9182 4.5043 24.4845C3.85206 22.0509 4.19148 19.4579 5.44814 17.274ZM40.5265 25.437L28.1939 18.3162L32.4634 15.8519C32.4845 15.838 32.5087 15.8295 32.5338 15.8273C32.5589 15.825 32.5842 15.829 32.6074 15.8389L42.8197 21.7346C44.3843 22.6384 45.6589 23.9691 46.4946 25.571C47.3301 27.173 47.692 28.9798 47.5379 30.7801C47.3838 32.5803 46.7198 34.2993 45.6241 35.7359C44.5283 37.1725 43.0459 38.2672 41.3505 38.8917C41.3505 38.8037 41.3505 38.6497 41.3505 38.5426V26.8732C41.3529 26.5823 41.2778 26.2959 41.133 26.0435C40.9881 25.7911 40.7789 25.5818 40.5265 25.437ZM44.7759 19.0412C44.7009 18.9952 44.5699 18.9162 44.476 18.8623L34.3746 13.0275C34.1229 12.8806 33.8366 12.8031 33.545 12.8031C33.2536 12.8031 32.9672 12.8806 32.7155 13.0275L20.383 20.1485V15.2178C20.3816 15.1926 20.3864 15.1675 20.397 15.1447C20.4077 15.1218 20.4238 15.1019 20.444 15.0868L30.6552 9.19606C32.2196 8.29402 34.0085 7.85612 35.8126 7.93356C37.6168 8.01102 39.3614 8.60062 40.8428 9.6334C42.324 10.6662 43.4806 12.0994 44.1771 13.7655C44.8737 15.4316 45.0814 17.2614 44.7759 19.0412ZM18.0617 27.8294L13.7911 25.3641C13.7688 25.3529 13.7494 25.3364 13.7349 25.316C13.7205 25.2956 13.7112 25.2719 13.7082 25.247V13.4535C13.7093 11.6473 14.225 9.87869 15.1948 8.35481C16.1646 6.83093 17.5484 5.61483 19.1843 4.84885C20.8201 4.08286 22.6403 3.7987 24.4317 4.02961C26.2233 4.26051 27.9119 4.99694 29.3001 6.15269C29.2231 6.19469 29.089 6.26871 29 6.32272L18.8988 12.1574C18.6453 12.3015 18.4349 12.5105 18.2889 12.7629C18.143 13.0153 18.0671 13.3021 18.0687 13.5935L18.0617 27.8294ZM20.3809 22.8287L25.8736 19.6564L31.3662 22.8267V29.1694L25.8736 32.3399L20.3809 29.1694V22.8287Z" fill="#27344A" style="fill:#27344A;fill:color(display-p3 0.1529 0.2039 0.2902);fill-opacity:1;"/>
</g>
<defs>
<clipPath id="clip0_265_3106">
<rect width="52" height="52" fill="white" style="fill:white;fill-opacity:1;"/>
</clipPath>
</defs>
</svg>
