<svg width="44" height="44" viewBox="0 0 44 44" fill="none" xmlns="http://www.w3.org/2000/svg">
<path d="M22.001 11.6875C22.001 17.3829 17.4781 22 11.8989 22H1.79688V11.6875C1.79688 5.99206 6.31971 1.375 11.8989 1.375C17.4781 1.375 22.001 5.99206 22.001 11.6875Z" fill="#27344A" style="fill:#27344A;fill:color(display-p3 0.1529 0.2039 0.2902);fill-opacity:1;"/>
<path d="M22 32.3125C22 26.6171 26.5228 22 32.102 22H42.2041V32.3125C42.2041 38.0079 37.6812 42.625 32.102 42.625C26.5228 42.625 22 38.0079 22 32.3125Z" fill="#27344A" style="fill:#27344A;fill:color(display-p3 0.1529 0.2039 0.2902);fill-opacity:1;"/>
<path d="M1.79688 32.3125C1.79688 38.0079 6.31971 42.625 11.8989 42.625H22.001V32.3125C22.001 26.6171 17.4781 22 11.8989 22C6.31971 22 1.79688 26.6171 1.79688 32.3125Z" fill="#27344A" style="fill:#27344A;fill:color(display-p3 0.1529 0.2039 0.2902);fill-opacity:1;"/>
<path d="M42.2041 11.6875C42.2041 5.99206 37.6812 1.375 32.102 1.375H22V11.6875C22 17.3829 26.5228 22 32.102 22C37.6812 22 42.2041 17.3829 42.2041 11.6875Z" fill="#27344A" style="fill:#27344A;fill:color(display-p3 0.1529 0.2039 0.2902);fill-opacity:1;"/>
</svg>
