<svg width="118" height="24" viewBox="0 0 118 24" fill="none" xmlns="http://www.w3.org/2000/svg">
<rect x="0.5" y="0.5" width="117" height="23" rx="3.5" stroke="#BAD1DF" style="stroke:#BAD1DF;stroke:color(display-p3 0.7280 0.8208 0.8729);stroke-opacity:1;"/>
<path d="M10.6904 17H9.27444V7.844H11.6984L13.8704 15.272L16.0544 7.844H18.4784V17H17.0624V8.816L14.5784 17H13.1864L10.6904 8.876V17ZM22.1632 17H20.6872L23.9872 7.844H25.5592L28.8592 17H27.3952L26.6872 14.936H22.8712L22.1632 17ZM24.7792 9.344L23.3032 13.688H26.2552L24.7792 9.344ZM37.825 17H36.289L34.753 13.232H32.485V17H31.069V7.844H34.753C35.649 7.844 36.357 8.068 36.877 8.516C37.397 8.956 37.657 9.62 37.657 10.508C37.657 11.108 37.521 11.62 37.249 12.044C36.977 12.468 36.601 12.78 36.121 12.98L37.825 17ZM32.485 11.996H34.561C35.105 11.996 35.521 11.872 35.809 11.624C36.105 11.376 36.253 11.016 36.253 10.544C36.253 10.088 36.105 9.736 35.809 9.488C35.521 9.24 35.105 9.116 34.561 9.116H32.485V11.996ZM41.7709 17H40.3549V7.844H41.7709V11.972L45.2869 7.844H47.0629L43.1989 12.248L47.2189 17H45.4189L41.7709 12.656V17ZM55.3953 17H49.3713V7.844H55.3953V9.116H50.7873V11.78H54.8793V13.04H50.7873V15.728H55.3953V17ZM61.6133 17H60.1973V9.116H57.2573V7.844H64.5653V9.116H61.6133V17ZM66.783 17V7.844H70.467C71.363 7.844 72.071 8.068 72.591 8.516C73.111 8.956 73.371 9.62 73.371 10.508C73.371 11.356 73.107 12.024 72.579 12.512C72.051 12.992 71.347 13.232 70.467 13.232H68.199V17H66.783ZM70.275 11.996C70.819 11.996 71.235 11.872 71.523 11.624C71.819 11.376 71.967 11.016 71.967 10.544C71.967 10.088 71.819 9.736 71.523 9.488C71.235 9.24 70.819 9.116 70.275 9.116H68.199V11.996H70.275ZM81.2349 17H75.8229V7.844H77.2389V15.728H81.2349V17ZM84.1882 17H82.7122L86.0122 7.844H87.5842L90.8842 17H89.4202L88.7122 14.936H84.8962L84.1882 17ZM86.8042 9.344L85.3282 13.688H88.2802L86.8042 9.344ZM96.7616 17.144C95.8096 17.144 95.0096 16.932 94.3616 16.508C93.7136 16.076 93.2296 15.504 92.9096 14.792C92.5976 14.072 92.4416 13.28 92.4416 12.416C92.4416 11.552 92.5976 10.764 92.9096 10.052C93.2296 9.332 93.7136 8.76 94.3616 8.336C95.0096 7.912 95.8096 7.7 96.7616 7.7C97.8176 7.7 98.6776 7.96 99.3416 8.48C100.006 8.992 100.406 9.68 100.542 10.544H98.9936C98.8976 10.048 98.6496 9.664 98.2496 9.392C97.8496 9.112 97.3456 8.972 96.7376 8.972C95.8256 8.972 95.1216 9.288 94.6256 9.92C94.1376 10.544 93.8936 11.376 93.8936 12.416C93.8936 13.464 94.1376 14.304 94.6256 14.936C95.1216 15.568 95.8256 15.884 96.7376 15.884C97.3536 15.884 97.8576 15.736 98.2496 15.44C98.6496 15.136 98.8976 14.7 98.9936 14.132H100.542C100.398 15.068 99.9976 15.804 99.3416 16.34C98.6856 16.876 97.8256 17.144 96.7616 17.144ZM109.084 17H103.06V7.844H109.084V9.116H104.476V11.78H108.568V13.04H104.476V15.728H109.084V17Z" fill="#2480FC" style="fill:#2480FC;fill:color(display-p3 0.1412 0.5020 0.9882);fill-opacity:1;"/>
</svg>
