<svg width="90" height="18" viewBox="0 0 90 18" fill="none" xmlns="http://www.w3.org/2000/svg">
<path d="M33.2517 9.10253C33.3212 9.10253 33.3699 9.03301 33.349 8.96698C32.6886 6.83988 32.3133 5.63383 32.2298 5.34882C32.143 5.06035 32.0804 4.83095 32.0456 4.66065C31.8927 5.24803 31.4652 6.68347 30.7596 8.96698C30.7388 9.03301 30.7875 9.10253 30.857 9.10253H33.2517ZM34.6315 13.2976L33.9329 11.0002C33.919 10.9585 33.8808 10.9272 33.8356 10.9272H30.2453C30.2001 10.9272 30.1618 10.955 30.1479 11.0002L29.4493 13.2976C29.4354 13.3393 29.3972 13.3706 29.352 13.3706H27.2284C27.1589 13.3706 27.1067 13.3011 27.1311 13.2316L30.6797 3.13484C30.6936 3.09313 30.7318 3.06532 30.777 3.06532H33.2934C33.3386 3.06532 33.3768 3.09313 33.3907 3.13484L36.9533 13.2316C36.9776 13.2976 36.9289 13.3706 36.8559 13.3706H34.7323C34.6871 13.3706 34.6489 13.3428 34.635 13.2976" fill="white" style="fill:white;fill-opacity:1;"/>
<path d="M40.464 7.83388C40.464 7.88949 40.5091 7.93815 40.5682 7.93815H41.1799C41.8507 7.93815 42.3512 7.80608 42.6814 7.54193C43.0151 7.27778 43.1784 6.89198 43.1784 6.38801C43.1784 5.88404 43.0394 5.50172 42.7614 5.25842C42.4833 5.01513 42.0454 4.89348 41.451 4.89348H40.5648C40.5091 4.89348 40.4605 4.93867 40.4605 4.99775V7.83736L40.464 7.83388ZM45.3751 6.31155C45.3751 7.4168 45.031 8.26139 44.3393 8.8453C43.6477 9.42921 42.6675 9.72116 41.3954 9.72116H40.5648C40.5091 9.72116 40.4605 9.76634 40.4605 9.82543V13.2698C40.4605 13.3254 40.4153 13.3741 40.3562 13.3741H38.3855C38.3299 13.3741 38.2812 13.3289 38.2812 13.2698V3.21127C38.2812 3.15566 38.3264 3.11047 38.3855 3.11047H41.5588C42.8031 3.11047 43.7484 3.3781 44.3984 3.91335C45.0449 4.4486 45.3716 5.248 45.3716 6.31155" fill="white" style="fill:white;fill-opacity:1;"/>
<path d="M47.3125 13.2663V3.21127C47.3125 3.15566 47.3577 3.11047 47.4168 3.11047H49.3875C49.4431 3.11047 49.4917 3.15566 49.4917 3.21127V13.2663C49.4917 13.3219 49.4465 13.3706 49.3875 13.3706H47.4168C47.3612 13.3706 47.3125 13.3254 47.3125 13.2663Z" fill="white" style="fill:white;fill-opacity:1;"/>
<path d="M52.0625 13.2663V3.21127C52.0625 3.15566 52.1077 3.11047 52.1668 3.11047H54.1375C54.1931 3.11047 54.2417 3.15566 54.2417 3.21127V11.4694C54.2417 11.525 54.2869 11.5737 54.346 11.5737H58.3013C58.3569 11.5737 58.4056 11.6189 58.4056 11.6779V13.2698C58.4056 13.3254 58.3604 13.3741 58.3013 13.3741H52.1702C52.1146 13.3741 52.066 13.3289 52.066 13.2698" fill="white" style="fill:white;fill-opacity:1;"/>
<path d="M64.4516 11.1535V9.71454C64.4516 9.62069 64.3578 9.52685 64.2639 9.5477C64.0276 9.57203 63.7669 9.61722 63.4854 9.64155C63.1309 9.69021 62.8737 9.75972 62.7069 9.8049C62.4948 9.87442 62.328 10.0169 62.2098 10.1594C62.0917 10.3262 62.043 10.5139 62.043 10.7746C62.043 10.9414 62.0673 11.0805 62.0917 11.1743C62.116 11.2682 62.1855 11.3863 62.2793 11.4802C62.3732 11.574 62.4914 11.647 62.6095 11.6922C62.7277 11.7408 62.9397 11.7617 63.2213 11.7617C63.4333 11.7617 63.6696 11.713 63.8816 11.5983C64.0936 11.5045 64.2605 11.3863 64.4238 11.2195C64.4482 11.2438 64.4482 11.1952 64.4482 11.15M64.4516 12.8739C64.4516 12.7314 64.2848 12.6619 64.1701 12.7557C64.1214 12.8044 64.0763 12.8496 64.0033 12.8982C63.8399 13.0407 63.6731 13.1589 63.5063 13.2527C63.2942 13.3709 63.0579 13.4648 62.8459 13.5134C62.6095 13.5621 62.3489 13.6073 62.0917 13.6073C61.4313 13.6073 60.8891 13.3709 60.4651 12.8982C60.0167 12.4255 59.8047 11.8138 59.8047 11.0596C59.8047 10.4688 59.9229 9.97521 60.1349 9.59636C60.3469 9.21752 60.6771 8.91166 61.0803 8.69965C61.4799 8.48763 62.0013 8.3208 62.5922 8.22696C63.183 8.13311 63.8191 8.06013 64.4551 8.01494V7.96628C64.4551 7.51792 64.2883 7.21207 63.9824 7.04524C63.6766 6.88188 63.2282 6.78456 62.613 6.78456C62.2585 6.78456 61.8588 6.85408 61.4556 7.02091C61.0559 7.16341 60.7466 7.28158 60.5832 7.37542H60.3712V5.5368C60.3712 5.46729 60.4199 5.3943 60.4894 5.36997C60.7257 5.30046 61.0559 5.22747 61.5043 5.15796C62.0222 5.06412 62.5435 5.01546 63.0614 5.01546C64.3126 5.01546 65.2093 5.2518 65.7515 5.70016C66.2937 6.14852 66.5787 6.87841 66.5787 7.84811V13.2041C66.5787 13.2979 66.5092 13.3709 66.4119 13.3709H64.5698C64.476 13.3709 64.403 13.3014 64.403 13.2041V12.8739H64.4516Z" fill="white" style="fill:white;fill-opacity:1;"/>
<path d="M71.8796 9.97149L73.2491 5.36973C73.2734 5.30022 73.3429 5.25156 73.4124 5.25156H75.2997C75.4179 5.25156 75.4874 5.36973 75.463 5.46357L71.7823 16.2242C71.758 16.2937 71.6885 16.3424 71.6155 16.3424H69.5857C69.4675 16.3424 69.398 16.2242 69.4224 16.1303L70.4129 13.3707C70.4373 13.3463 70.4373 13.3012 70.4129 13.2525L67.8409 5.46705C67.7923 5.34887 67.8896 5.25503 68.0078 5.25503H69.9646C70.0341 5.25503 70.1071 5.30369 70.1314 5.3732L71.5703 9.97496C71.619 10.1175 71.831 10.1175 71.8762 9.97496" fill="white" style="fill:white;fill-opacity:1;"/>
<path d="M81.1333 8.25128C81.2271 8.25128 81.3001 8.18177 81.3001 8.08445C81.2758 7.63609 81.1576 7.28157 80.9699 7.02438C80.7579 6.74285 80.4277 6.62468 79.955 6.62468C79.531 6.62468 79.1765 6.76718 78.9158 7.02438C78.6795 7.26072 78.5161 7.61524 78.4675 8.08445C78.4675 8.17829 78.537 8.27213 78.6343 8.27213L81.1368 8.2478L81.1333 8.25128ZM83.3264 9.78404H78.6551C78.5613 9.78404 78.4675 9.87788 78.4883 9.97173C78.5578 10.5139 78.749 10.938 79.0792 11.2473C79.458 11.5775 80.0002 11.7443 80.7301 11.7443C81.2028 11.7443 81.6512 11.6505 82.0752 11.4385C82.4992 11.2508 82.8537 11.0388 83.1144 10.8024H83.3507V12.7835C83.3507 12.853 83.3021 12.9017 83.2569 12.9504C82.8085 13.1624 82.3602 13.3292 81.9605 13.423C81.5121 13.5169 81.0394 13.5899 80.4972 13.5899C79.1278 13.5899 78.0678 13.211 77.3344 12.4811C76.6045 11.7478 76.25 10.712 76.25 9.34263C76.25 7.97323 76.6045 6.93749 77.2892 6.15894C77.9739 5.38039 78.9402 4.97722 80.1427 4.97722C81.2515 4.97722 82.0995 5.30741 82.6452 5.96778C83.2117 6.62815 83.4933 7.59786 83.4933 8.84562V9.59983C83.4933 9.718 83.4237 9.78752 83.3264 9.78752" fill="white" style="fill:white;fill-opacity:1;"/>
<path d="M90.0032 7.72969H89.8155C89.7216 7.68104 89.5791 7.66018 89.3671 7.63585C89.1551 7.61152 88.9883 7.61152 88.8492 7.61152C88.5434 7.61152 88.2584 7.63585 88.022 7.68104C87.81 7.72969 87.598 7.79921 87.3617 7.89305C87.2921 7.91738 87.2435 7.98689 87.2435 8.05641V13.2247C87.2435 13.3185 87.174 13.3881 87.0767 13.3881H85.2137C85.1199 13.3881 85.0469 13.3185 85.0469 13.2247V5.44272C85.0469 5.34887 85.1164 5.27589 85.2137 5.27589H87.0767C87.1705 5.27589 87.2435 5.3454 87.2435 5.44272V6.07876C87.2435 6.22126 87.4103 6.29078 87.525 6.19693C87.8795 5.86675 88.2097 5.6304 88.4912 5.4879C88.8458 5.32107 89.176 5.25156 89.4818 5.25156H89.7425C89.8363 5.25156 89.9302 5.27589 90.0032 5.27589V7.72969Z" fill="white" style="fill:white;fill-opacity:1;"/>
<path d="M18.7215 12.0258L17.7762 13.2528C17.3765 13.7706 16.7613 14.08 16.1252 14.08H6.49769L2.93514 5.6098C2.67447 4.99461 2.76831 4.28905 3.17149 3.7677L3.95003 2.72849L7.84276 12.0258H18.7215Z" fill="white" style="fill:white;fill-opacity:1;"/>
<path d="M18.8397 10.6356H8.85764L5.31943 2.18629C4.94058 1.28957 5.60095 0.299011 6.57066 0.299011H16.5527L20.0909 8.74484C20.4698 9.64156 19.8094 10.6321 18.8397 10.6321" fill="white" style="fill:white;fill-opacity:1;"/>
<path d="M16.0767 15.4459L15.1313 16.6728C14.7316 17.1907 14.1165 17.5 13.4804 17.5H5.10757C4.49586 17.5 3.95018 17.1455 3.71383 16.579L0.526664 8.936C0.245136 8.25129 0.338979 7.44842 0.787338 6.86103L1.49637 5.93999L5.48294 15.4494H16.0767V15.4459Z" fill="white" style="fill:white;fill-opacity:1;"/>
</svg>
