<svg width="30" height="29" viewBox="0 0 30 29" fill="none" xmlns="http://www.w3.org/2000/svg">
<path fill-rule="evenodd" clip-rule="evenodd" d="M14.9668 0.328735C22.7972 0.328735 29.1445 6.83621 29.1445 14.8651C29.1445 21.2861 25.0869 26.7333 19.4569 28.6572C18.7381 28.8004 18.4829 28.3464 18.4829 27.9594C18.4829 27.4802 18.4999 25.915 18.4999 23.9698C18.4999 22.6144 18.0462 21.7298 17.5372 21.2789C20.6946 20.9188 24.0122 19.6895 24.0122 14.1063C24.0122 12.5184 23.4621 11.2226 22.5519 10.2047C22.6993 9.83748 23.1856 8.35893 22.4129 6.35703C22.4129 6.35703 21.2248 5.96753 18.5183 7.8475C17.3855 7.52566 16.1719 7.36373 14.9668 7.35806C13.7617 7.36373 12.5495 7.52566 11.4181 7.8475C8.70875 5.96753 7.51782 6.35703 7.51782 6.35703C6.74797 8.35893 7.23426 9.83748 7.38029 10.2047C6.47434 11.2226 5.91999 12.5184 5.91999 14.1063C5.91999 19.6753 9.23049 20.9235 12.3794 21.2907C11.9739 21.6537 11.6067 22.2939 11.4791 23.2339C10.6709 23.6054 8.618 24.2482 7.35335 22.0266C7.35335 22.0266 6.60335 20.6299 5.17991 20.5278C5.17991 20.5278 3.79758 20.5095 5.0835 21.4112C5.0835 21.4112 6.01214 21.8578 6.65723 23.5378C6.65723 23.5378 7.48946 26.1323 11.4337 25.2533C11.4408 26.4683 11.4536 27.6134 11.4536 27.9594C11.4536 28.3436 11.1927 28.7932 10.4852 28.6586C4.85098 26.7375 0.789062 21.2876 0.789062 14.8651C0.789062 6.83621 7.13785 0.328735 14.9668 0.328735Z" fill="white" style="fill:white;fill-opacity:1;"/>
</svg>
