<svg width="28" height="29" viewBox="0 0 28 29" fill="none" xmlns="http://www.w3.org/2000/svg">
<g clip-path="url(#clip0_265_2814)">
<path d="M13.8299 8.00326L14.241 5.79775C17.855 6.51454 20.8926 9.18622 22.1708 12.7602L20.1357 13.5371C19.1182 10.695 16.7021 8.57469 13.8349 8.00326H13.8299ZM14.0354 2.32908L14.3162 0.103516C21.2134 1.03083 26.7121 6.40427 28.0004 13.4769L25.865 13.893C24.7522 7.7777 20.0004 3.1361 14.0354 2.33409V2.32908ZM7.56928 21.9632C0.772292 15.8729 -0.0196881 10.4143 0.000362064 8.09349C0.0053746 7.38171 0.281064 6.70001 0.742217 6.16868L3.00788 3.55715C3.72467 2.73008 4.96277 2.67996 5.73971 3.44687L8.91264 6.58472C9.64949 7.31154 9.69961 8.50953 9.02793 9.30151L7.40888 11.2113C7.05299 11.6323 6.98282 12.2338 7.23344 12.7301C8.0956 14.4293 10.4515 18.2689 14.9126 20.294C15.3487 20.4945 15.86 20.4043 16.2309 20.0935L18.3763 18.299C19.1182 17.6775 20.1959 17.7226 20.8826 18.4093L24.1357 21.6223C24.9377 22.4143 24.9177 23.7376 24.0956 24.5045L21.068 27.3266C20.5918 27.7677 19.9953 28.0434 19.3588 28.0885C19.2435 28.0985 19.1182 28.1035 18.9878 28.1035C17.0831 28.1035 13.3738 27.1762 7.55926 21.9682L7.56928 21.9632Z" fill="#27344A" style="fill:#27344A;fill:color(display-p3 0.1529 0.2039 0.2902);fill-opacity:1;"/>
</g>
<defs>
<clipPath id="clip0_265_2814">
<rect width="28" height="28" fill="white" style="fill:white;fill-opacity:1;" transform="translate(0 0.103516)"/>
</clipPath>
</defs>
</svg>
