<svg width="23" height="30" viewBox="0 0 23 30" fill="none" xmlns="http://www.w3.org/2000/svg">
<path d="M20.4458 14.9464L15.8099 10.4033L11.5209 14.6006L16.2047 19.1965C16.6772 19.6362 16.9345 20.2282 16.9345 20.8613C16.9345 22.1276 15.8817 23.1593 14.5896 23.1593H0.580234V29.1035H14.5956C19.2315 29.1035 23 25.4104 23 20.8672C23 18.622 22.0489 16.4472 20.4398 14.9523L20.4458 14.9464ZM7.19012 18.8037L11.4791 14.6006L6.78934 10.0105C6.32276 9.57087 6.05956 8.97879 6.05956 8.34568C6.05956 7.07946 7.11235 6.04772 8.40442 6.04772H22.4198V0.103516H8.40442C3.77451 0.103516 0 3.80253 0 8.34568C0 10.5909 0.951105 12.7657 2.56021 14.2606L7.1961 18.8037H7.19012Z" fill="#27344A" style="fill:#27344A;fill:color(display-p3 0.1529 0.2039 0.2902);fill-opacity:1;"/>
</svg>
