<svg width="84" height="25" viewBox="0 0 84 25" fill="none" xmlns="http://www.w3.org/2000/svg">
<rect x="0.5" y="0.603516" width="83" height="23" rx="3.5" fill="white" style="fill:white;fill-opacity:1;"/>
<rect x="0.5" y="0.603516" width="83" height="23" rx="3.5" stroke="#E5ECF1" style="stroke:#E5ECF1;stroke:color(display-p3 0.8980 0.9255 0.9451);stroke-opacity:1;"/>
<path d="M12.9152 17.1035H11.4992V9.21952H8.55923V7.94752H15.8672V9.21952H12.9152V17.1035ZM21.6594 17.2475C20.7074 17.2475 19.9034 17.0355 19.2474 16.6115C18.5994 16.1795 18.1154 15.6075 17.7954 14.8955C17.4754 14.1755 17.3154 13.3835 17.3154 12.5195C17.3154 11.6475 17.4754 10.8555 17.7954 10.1435C18.1154 9.43152 18.5994 8.86352 19.2474 8.43951C19.9034 8.01552 20.7074 7.80352 21.6594 7.80352C22.6114 7.80352 23.4114 8.01552 24.0594 8.43951C24.7154 8.86352 25.2034 9.43152 25.5234 10.1435C25.8514 10.8555 26.0154 11.6475 26.0154 12.5195C26.0154 13.3835 25.8514 14.1755 25.5234 14.8955C25.2034 15.6075 24.7154 16.1795 24.0594 16.6115C23.4114 17.0355 22.6114 17.2475 21.6594 17.2475ZM21.6594 15.9755C22.2674 15.9755 22.7874 15.8315 23.2194 15.5435C23.6594 15.2475 23.9914 14.8395 24.2154 14.3195C24.4474 13.7995 24.5634 13.1995 24.5634 12.5195C24.5634 11.8395 24.4474 11.2435 24.2154 10.7315C23.9914 10.2115 23.6594 9.80752 23.2194 9.51952C22.7874 9.22352 22.2674 9.07552 21.6594 9.07552C21.0514 9.07552 20.5274 9.22352 20.0874 9.51952C19.6554 9.80752 19.3274 10.2115 19.1034 10.7315C18.8794 11.2435 18.7674 11.8395 18.7674 12.5195C18.7674 13.1995 18.8794 13.7995 19.1034 14.3195C19.3274 14.8395 19.6554 15.2475 20.0874 15.5435C20.5274 15.8315 21.0514 15.9755 21.6594 15.9755ZM36.6095 17.2475C35.9775 17.2475 35.3815 17.1475 34.8215 16.9475C34.2695 16.7395 33.8015 16.4115 33.4175 15.9635C33.0335 15.5075 32.8015 14.9315 32.7215 14.2355H34.1615C34.2975 14.8755 34.5935 15.3355 35.0495 15.6155C35.5055 15.8875 36.0335 16.0235 36.6335 16.0235C37.2175 16.0235 37.6735 15.9035 38.0015 15.6635C38.3375 15.4155 38.5055 15.0555 38.5055 14.5835C38.5055 14.2315 38.4015 13.9515 38.1935 13.7435C37.9855 13.5275 37.7255 13.3715 37.4135 13.2755C37.1015 13.1715 36.6735 13.0595 36.1295 12.9395C35.4655 12.7955 34.9295 12.6515 34.5215 12.5075C34.1135 12.3555 33.7655 12.1155 33.4775 11.7875C33.1895 11.4515 33.0455 10.9915 33.0455 10.4075C33.0455 9.86352 33.1775 9.39552 33.4415 9.00352C33.7055 8.61152 34.0735 8.31552 34.5455 8.11552C35.0175 7.90752 35.5575 7.80352 36.1655 7.80352C37.0615 7.80352 37.8335 8.03552 38.4815 8.49952C39.1295 8.95552 39.5255 9.64352 39.6695 10.5635H38.2535C38.1335 10.0435 37.8815 9.65952 37.4975 9.41152C37.1215 9.16352 36.6695 9.03952 36.1415 9.03952C35.6135 9.03952 35.2015 9.15152 34.9055 9.37551C34.6095 9.59152 34.4615 9.89552 34.4615 10.2875C34.4615 10.5915 34.5575 10.8355 34.7495 11.0195C34.9495 11.2035 35.1935 11.3435 35.4815 11.4395C35.7695 11.5355 36.1695 11.6395 36.6815 11.7515C37.3775 11.9035 37.9375 12.0595 38.3615 12.2195C38.7935 12.3795 39.1615 12.6435 39.4655 13.0115C39.7695 13.3715 39.9215 13.8675 39.9215 14.4995C39.9215 15.3475 39.6295 16.0195 39.0455 16.5155C38.4695 17.0035 37.6575 17.2475 36.6095 17.2475ZM45.934 17.1035H44.518V9.21952H41.578V7.94752H48.886V9.21952H45.934V17.1035ZM50.7222 17.1035H49.2462L52.5462 7.94752H54.1182L57.4182 17.1035H55.9542L55.2462 15.0395H51.4302L50.7222 17.1035ZM53.3382 9.44752L51.8622 13.7915H54.8142L53.3382 9.44752ZM66.384 17.1035H64.848L63.312 13.3355H61.044V17.1035H59.628V7.94752H63.312C64.208 7.94752 64.916 8.17152 65.436 8.61952C65.956 9.05952 66.216 9.72352 66.216 10.6115C66.216 11.2115 66.08 11.7235 65.808 12.1475C65.536 12.5715 65.16 12.8835 64.68 13.0835L66.384 17.1035ZM61.044 12.0995H63.12C63.664 12.0995 64.08 11.9755 64.368 11.7275C64.664 11.4795 64.812 11.1195 64.812 10.6475C64.812 10.1915 64.664 9.83952 64.368 9.59152C64.08 9.34352 63.664 9.21952 63.12 9.21952H61.044V12.0995ZM72.491 17.1035H71.075V9.21952H68.135V7.94752H75.443V9.21952H72.491V17.1035Z" fill="#2480FC" style="fill:#2480FC;fill:color(display-p3 0.1412 0.5020 0.9882);fill-opacity:1;"/>
</svg>
