<svg width="16" height="14" viewBox="0 0 16 14" fill="none" xmlns="http://www.w3.org/2000/svg">
<path d="M16 1.55498C15.781 1.88297 15.5324 2.19014 15.2571 2.4726C14.9805 2.75687 14.68 3.01685 14.3589 3.24966C14.3692 3.39304 14.3745 3.53673 14.3749 3.68048C14.3749 4.33641 14.3051 4.98435 14.1646 5.62543C14.0245 6.26421 13.82 6.88714 13.5543 7.48467C13.1862 8.32654 12.6998 9.11153 12.1097 9.81587C11.5442 10.4894 10.8817 11.0752 10.144 11.554C9.40367 12.0317 8.59688 12.3975 7.74971 12.6396C6.86572 12.8926 5.95035 13.0192 5.03086 13.0155C4.14414 13.0167 3.26177 12.8916 2.41029 12.6442C1.5569 12.3957 0.744763 12.023 0 11.538C0.859625 11.6419 1.73131 11.5753 2.56515 11.3419C3.399 11.1086 4.17863 10.7131 4.85943 10.1781C4.35012 10.171 3.84963 10.0442 3.39837 9.80797C2.94711 9.57175 2.55774 9.23271 2.26171 8.81825C2.0598 8.53972 1.90285 8.23124 1.79657 7.90406C1.90057 7.92006 2.00343 7.93377 2.10514 7.94405C2.49742 7.98245 2.89341 7.94796 3.27314 7.84235C2.89858 7.7685 2.5402 7.62841 2.21486 7.42868C1.89961 7.23498 1.6185 6.99057 1.38286 6.70532C0.899106 6.11965 0.636216 5.38282 0.64 4.62324V4.58553C1.09943 4.84493 1.59657 4.98321 2.13257 4.9992C1.68564 4.6948 1.31869 4.28713 1.06286 3.81075C0.937571 3.5758 0.840516 3.32686 0.773714 3.06911C0.637646 2.52366 0.640396 1.95282 0.781714 1.4087C0.853714 1.13102 0.965714 0.867044 1.11771 0.616783C1.53371 1.13216 1.99771 1.59497 2.50743 2.00293C3.52047 2.8153 4.69104 3.40869 5.94514 3.74562C6.57816 3.91523 7.22763 4.01599 7.88229 4.04616C7.8507 3.92424 7.82854 3.80008 7.816 3.67476C7.80312 3.54909 7.79664 3.42285 7.79657 3.29652C7.79657 2.84285 7.88229 2.4166 8.05486 2.01893C8.38944 1.23314 9.01527 0.607371 9.80114 0.272817C10.2044 0.100216 10.639 0.0126851 11.0777 0.0157003C11.5277 0.0135118 11.9732 0.1047 12.3861 0.283498C12.799 0.462296 13.1703 0.724814 13.4766 1.05445C14.2098 0.909716 14.9126 0.639901 15.5543 0.256819C15.3164 1.01831 14.804 1.66424 14.1166 2.06921C14.7666 1.99367 15.4015 1.8207 16 1.55612V1.55498Z" fill="#EEF1F4" style="fill:#EEF1F4;fill:color(display-p3 0.9333 0.9451 0.9569);fill-opacity:1;"/>
</svg>
