<svg width="36" height="26" viewBox="0 0 36 26" fill="none" xmlns="http://www.w3.org/2000/svg">
<g clip-path="url(#clip0_265_2829)">
<path d="M0.593923 10.2866C-0.121739 9.68342 -0.201257 8.62608 0.4132 7.92356C4.77224 2.9562 11.1843 0.103516 18.0084 0.103516C24.8325 0.103516 31.2301 2.9491 35.5891 7.90936C36.2036 8.61189 36.124 9.66923 35.4084 10.2724C34.6927 10.8756 33.6156 10.7975 33.0012 10.1021C29.2927 5.87984 23.8277 3.46003 18.0084 3.46003C12.1891 3.46003 6.70236 5.88694 3.00115 10.1234C2.66139 10.5066 2.18428 10.7053 1.70718 10.7053C1.31681 10.7053 0.919225 10.5704 0.593923 10.3008V10.2866ZM6.94814 16.7655C6.17465 16.2403 5.97947 15.1972 6.51441 14.4379C9.08067 10.7833 13.3819 8.60479 18.0084 8.60479C22.6349 8.60479 26.9361 10.7833 29.5024 14.4379C30.0373 15.1972 29.8421 16.2403 29.0686 16.7655C28.2951 17.2906 27.2325 17.099 26.6975 16.3397C24.7674 13.5934 21.5144 11.9542 18.0084 11.9542C14.5024 11.9542 11.2493 13.5934 9.31922 16.3397C8.98669 16.808 8.45898 17.0635 7.91681 17.0635C7.58428 17.0635 7.24453 16.9641 6.94814 16.7655ZM14.1409 21.4632C14.1409 19.4549 15.8686 17.8228 18.0084 17.8228C20.1481 17.8228 21.8759 19.4549 21.8759 21.4632C21.8759 23.4714 20.1481 25.1035 18.0084 25.1035C15.8686 25.1035 14.1409 23.4714 14.1409 21.4632Z" fill="#27344A" style="fill:#27344A;fill:color(display-p3 0.1529 0.2039 0.2902);fill-opacity:1;"/>
</g>
<defs>
<clipPath id="clip0_265_2829">
<rect width="36" height="25" fill="white" style="fill:white;fill-opacity:1;" transform="translate(0 0.103516)"/>
</clipPath>
</defs>
</svg>
