<svg width="16" height="13" viewBox="0 0 16 13" fill="none" xmlns="http://www.w3.org/2000/svg">
<path d="M15.6696 1.89882C15.5807 1.53283 15.4024 1.1986 15.1529 0.9303C14.9035 0.661998 14.5918 0.469229 14.2497 0.371696C12.1758 0.110474 10.0882 -0.00724259 8 0.0192844C5.91184 -0.00724259 3.82426 0.110474 1.75032 0.371696C1.40826 0.469229 1.09656 0.661998 0.847095 0.9303C0.597618 1.1986 0.419317 1.53283 0.330392 1.89882C0.103213 3.25928 -0.00724144 4.63907 0.000408175 6.02095C-0.00762142 7.40999 0.102833 8.79689 0.330392 10.1645C0.423927 10.5246 0.604278 10.8521 0.853445 11.1145C1.1026 11.3769 1.41186 11.5648 1.75032 11.6595C3.82426 11.9208 5.91184 12.0385 8 12.012C10.0882 12.0385 12.1758 11.9208 14.2497 11.6595C14.5882 11.5648 14.8975 11.3769 15.1465 11.1145C15.3957 10.8521 15.5761 10.5246 15.6696 10.1645C15.8972 8.79689 16.0076 7.40999 15.9996 6.02095C16.0073 4.63907 15.8968 3.25928 15.6696 1.89882ZM6.36008 8.57327V3.49001L10.5499 6.02095L6.36008 8.56259V8.57327Z" fill="#EEF1F4" style="fill:#EEF1F4;fill:color(display-p3 0.9333 0.9451 0.9569);fill-opacity:1;"/>
</svg>
